# Created by MKDS Course Modifier
mtllib Terry.mtl
g polygon0
usemtl attack_b
v -0.3383441 -0.005615234 -0.2934277
v -0.06534636 0.09130859 -0.3103446
v -0.3080727 0.06518555 -0.07802272
v -0.05094111 0.125 -0.2078398
v -0.3080727 0.2937012 -0.07802272
v -0.05094111 0.2338867 -0.2078398
v -0.3383441 0.364502 -0.2934277
v -0.06534636 0.2675781 -0.3103446
vn NaN 0 0
vn NaN 0 0
vn NaN 0 0
vn NaN 0 0
vn NaN 0 0
vn NaN 0 0
vn NaN 0 0
vn NaN 0 0
vt 0.765625 -1.5
vt 0.0234375 -1.5
vt 0.921875 -0.9921875
vt 0.0234375 -0.9921875
vt 0.765625 -0.515625
vt 0.0234375 -0.515625
vt 0.921875 0
vt 0.0234375 0
v -0.3383441 0.364502 -0.2934277
v -0.06534636 0.2675781 -0.3103446
v -0.3570641 0.1794434 -0.4266355
v -0.07424772 0.1794434 -0.3736848
v -0.3383441 -0.005615234 -0.2934277
v -0.06534636 0.09130859 -0.3103446
vn NaN 0 0
vn NaN 0 0
vn NaN 0 0
vn NaN 0 0
vn NaN 0 0
vn NaN 0 0
vt 0.765625 -2.632813
vt 0.0234375 -2.632813
vt 0.921875 -2.070313
vt 0.0234375 -2.070313
vt 0.765625 -1.507813
vt 0.0234375 -1.507813
v -0.07424772 0.1794434 -0.3736848
v -0.06534636 0.2675781 -0.3103446
v 0.01281786 0.1794434 -0.2944573
v -0.06534636 0.09130859 -0.3103446
v -0.07424772 0.1794434 -0.3736848
v 0.01281786 0.1794434 -0.2944573
v -0.05094111 0.125 -0.2078398
v -0.06534636 0.09130859 -0.3103446
v 0.01281786 0.1794434 -0.2944573
v -0.05094111 0.2338867 -0.2078398
v -0.05094111 0.125 -0.2078398
v 0.01281786 0.1794434 -0.2944573
v -0.06534636 0.2675781 -0.3103446
v -0.05094111 0.2338867 -0.2078398
v 0.01281786 0.1794434 -0.2944573
vn NaN 0 0
vn NaN 0 0
vn NaN 0 0
vn NaN 0 0
vn NaN 0 0
vn NaN 0 0
vn NaN 0 0
vn NaN 0 0
vn NaN 0 0
vn NaN 0 0
vn NaN 0 0
vn NaN 0 0
vn NaN 0 0
vn NaN 0 0
vn NaN 0 0
vt 0.0234375 -2.070313
vt 0.0234375 -2.632813
vt 0.0234375 -2.3125
vt 0.0234375 -1.5
vt 0.0234375 -2.070313
vt 0.0234375 -1.765625
vt 0.0234375 -0.9921875
vt 0.0234375 -1.5
vt 0.0234375 -1.257813
vt 0.0234375 -0.515625
vt 0.0234375 -0.9921875
vt 0.0234375 -0.7265625
vt 0.0234375 0
vt 0.0234375 -0.515625
vt 0.0234375 -0.2109375
g polygon1
usemtl T_kora
v 0.04931641 0.2900391 -0.05541992
v 0.04638672 0.1940918 -0.09448242
v 0 0.262207 -0.09521484
v 0 0.1982422 -0.114502
v -0.04931641 0.2900391 -0.05541992
v -0.04638672 0.1940918 -0.09448242
vn NaN 0 0
vn NaN 0 0
vn NaN 0 0
vn NaN 0 0
vn NaN 0 0
vn NaN 0 0
vt 0.84375 -0.0078125
vt 0.7519531 -0.5546875
vt 0.5 -0.1972656
vt 0.5 -0.5332031
vt 0.15625 -0.0078125
vt 0.2480469 -0.5546875
f 30/30/30 31/31/31 32/32/32
f 31/31/31 33/33/33 32/32/32
f 32/32/32 33/33/33 34/34/34
f 33/33/33 35/35/35 34/34/34
v 0.04931641 0.2900391 -0.05541992
v 0.06762695 0.2092285 -0.05981445
v 0.04638672 0.1940918 -0.09448242
v 0.0625 0.151123 -0.05541992
v 0 0.1303711 -0.09082031
v 0 0.109375 -0.06445313
v -0.06762695 0.151123 -0.05541992
vn NaN 0 0
vn NaN 0 0
vn NaN 0 0
vn NaN 0 0
vn NaN 0 0
vn NaN 0 0
vn NaN 0 0
vt 0.84375 -0.0078125
vt 1 -0.4746094
vt 0.7519531 -0.5546875
vt 0.96875 -0.8320313
vt 0.5 -0.8886719
vt 0.5 -1
vt 0.03320313 -0.8320313
f 36/36/36 37/37/37 38/38/38
f 37/37/37 39/39/39 38/38/38
f 38/38/38 39/39/39 40/40/40
f 39/39/39 41/41/41 40/40/40
f 40/40/40 41/41/41 42/42/42
v -0.06762695 0.151123 -0.05541992
v -0.04638672 0.1940918 -0.09448242
v 0 0.1303711 -0.09082031
v 0 0.1982422 -0.114502
v 0.04638672 0.1940918 -0.09448242
vn NaN 0 0
vn NaN 0 0
vn NaN 0 0
vn NaN 0 0
vn NaN 0 0
vt 0.03320313 -0.8320313
vt 0.2480469 -0.5546875
vt 0.5 -0.8886719
vt 0.5 -0.5332031
vt 0.7519531 -0.5546875
f 43/43/43 44/44/44 45/45/45
f 44/44/44 46/46/46 45/45/45
f 45/45/45 46/46/46 47/47/47
v -0.04931641 0.2900391 -0.05541992
v -0.04638672 0.1940918 -0.09448242
v -0.06762695 0.208252 -0.05981445
v -0.06762695 0.151123 -0.05541992
vn NaN 0 0
vn NaN 0 0
vn NaN 0 0
vn NaN 0 0
vt 0.15625 -0.0078125
vt 0.2480469 -0.5546875
vt 0 -0.4804688
vt 0.03320313 -0.8320313
f 48/48/48 49/49/49 50/50/50
f 49/49/49 51/51/51 50/50/50
v 0.04931641 0.2900391 -0.05541992
v 0 0.262207 -0.09521484
v 0 0.2995605 -0.05932617
v -0.04931641 0.2900391 -0.05541992
vn NaN 0 0
vn NaN 0 0
vn NaN 0 0
vn NaN 0 0
vt 0.84375 -0.0078125
vt 0.5 -0.1972656
vt 0.5 0
vt 0.15625 -0.0078125
f 52/52/52 53/53/53 54/54/54
f 53/53/53 55/55/55 54/54/54
g polygon2
usemtl T_eye
v 0.05664063 0.394043 -0.04150391
v 0.09716797 0.4182129 -0.0546875
v 0 0.392334 -0.06665039
v 0 0.3964844 -0.1142578
v -0.05664063 0.394043 -0.04150391
v -0.09716797 0.4182129 -0.0546875
vn NaN 0 0
vn NaN 0 0
vn NaN 0 0
vn NaN 0 0
vn NaN 0 0
vn NaN 0 0
vt 0.8798828 -0.1035156
vt 0.9042969 -0.0859375
vt 0.8505859 -0.09179688
vt 0.8505859 -0.06835938
vt 0.8798828 -0.1035156
vt 0.9042969 -0.0859375
f 56/56/56 57/57/57 58/58/58
f 57/57/57 59/59/59 58/58/58
f 58/58/58 59/59/59 60/60/60
f 59/59/59 61/61/61 60/60/60
v 0.08325195 0.3974609 0.07910156
v 0.05664063 0.4086914 0.04394531
v 0 0.3952637 0.1281738
v 0 0.4104004 0.06274414
v -0.08325195 0.3974609 0.07910156
v -0.05664063 0.4086914 0.04394531
vn NaN 0 0
vn NaN 0 0
vn NaN 0 0
vn NaN 0 0
vn NaN 0 0
vn NaN 0 0
vt 0.8935547 -0.1582031
vt 0.8798828 -0.140625
vt 0.8505859 -0.1757813
vt 0.8505859 -0.1523438
vt 0.8935547 -0.1582031
vt 0.8798828 -0.140625
f 62/62/62 63/63/63 64/64/64
f 63/63/63 65/65/65 64/64/64
f 64/64/64 65/65/65 66/66/66
f 65/65/65 67/67/67 66/66/66
v 0.03100586 0.3703613 0.05859375
v 0.05859375 0.3718262 0.04858398
v 0.0300293 0.3850098 0.06787109
v 0.05737305 0.3864746 0.04736328
v 0.02807617 0.4099121 0.05493164
v 0.05517578 0.411377 0.04516602
vn NaN 0 0
vn NaN 0 0
vn NaN 0 0
vn NaN 0 0
vn NaN 0 0
vn NaN 0 0
vt 0.3632813 -0.984375
vt 0.7558594 -0.984375
vt 0.3632813 -0.625
vt 0.7558594 -0.625
vt 0.3632813 -0.015625
vt 0.7558594 -0.015625
f 68/68/68 69/69/69 70/70/70
f 69/69/69 71/71/71 70/70/70
f 70/70/70 71/71/71 72/72/72
f 71/71/71 73/73/73 72/72/72
v 0.005615234 0.3691406 0.06762695
v 0.03100586 0.3703613 0.05859375
v 0.004882813 0.3837891 0.06616211
v 0.0300293 0.3850098 0.06787109
v 0.003417969 0.4086914 0.06396484
v 0.02807617 0.4099121 0.05493164
vn NaN 0 0
vn NaN 0 0
vn NaN 0 0
vn NaN 0 0
vn NaN 0 0
vn NaN 0 0
vt 0.002929688 -0.984375
vt 0.3632813 -0.984375
vt 0.002929688 -0.625
vt 0.3632813 -0.625
vt 0.002929688 -0.015625
vt 0.3632813 -0.015625
f 74/74/74 75/75/75 76/76/76
f 75/75/75 77/77/77 76/76/76
f 76/76/76 77/77/77 78/78/78
f 77/77/77 79/79/79 78/78/78
v -0.02661133 0.4099121 0.05541992
v -0.0546875 0.4118652 0.04516602
v -0.02856445 0.3850098 0.06835938
v -0.05737305 0.3869629 0.04736328
v -0.0300293 0.3703613 0.05908203
v -0.05883789 0.3720703 0.04858398
vn NaN 0 0
vn NaN 0 0
vn NaN 0 0
vn NaN 0 0
vn NaN 0 0
vn NaN 0 0
vt 0.34375 -0.015625
vt 0.7558594 -0.015625
vt 0.34375 -0.6210938
vt 0.7558594 -0.6210938
vt 0.34375 -0.984375
vt 0.7558594 -0.984375
f 80/80/80 81/81/81 82/82/82
f 81/81/81 83/83/83 82/82/82
f 82/82/82 83/83/83 84/84/84
f 83/83/83 85/85/85 84/84/84
v -0.003173828 0.4082031 0.06396484
v -0.02661133 0.4099121 0.05541992
v -0.004882813 0.3835449 0.06616211
v -0.02856445 0.3850098 0.06835938
v -0.006103516 0.3686523 0.06762695
v -0.0300293 0.3703613 0.05908203
vn NaN 0 0
vn NaN 0 0
vn NaN 0 0
vn NaN 0 0
vn NaN 0 0
vn NaN 0 0
vt 0.002929688 -0.015625
vt 0.34375 -0.015625
vt 0.002929688 -0.6210938
vt 0.34375 -0.6210938
vt 0.002929688 -0.984375
vt 0.34375 -0.984375
f 86/86/86 87/87/87 88/88/88
f 87/87/87 89/89/89 88/88/88
f 88/88/88 89/89/89 90/90/90
f 89/89/89 91/91/91 90/90/90
v 0.05664063 0.4086914 0.04394531
v 0.08325195 0.3974609 0.07910156
v 0.05664063 0.394043 -0.04150391
v 0.09716797 0.4182129 -0.0546875
vn NaN 0 0
vn NaN 0 0
vn NaN 0 0
vn NaN 0 0
vt 0.8798828 -0.140625
vt 0.8935547 -0.1582031
vt 0.8798828 -0.1035156
vt 0.9042969 -0.0859375
f 92/92/92 93/93/93 94/94/94
f 93/93/93 95/95/95 94/94/94
v -0.05664063 0.4086914 0.04394531
v -0.05664063 0.394043 -0.04150391
v -0.08325195 0.3974609 0.07910156
v -0.09716797 0.4182129 -0.0546875
vn NaN 0 0
vn NaN 0 0
vn NaN 0 0
vn NaN 0 0
vt 0.8798828 -0.140625
vt 0.8798828 -0.1035156
vt 0.8935547 -0.1582031
vt 0.9042969 -0.0859375
f 96/96/96 97/97/97 98/98/98
f 97/97/97 99/99/99 98/98/98
g polygon3
usemtl T_body
v 0 0.392334 -0.06665039
v 0 0.4526367 -0.06103516
v 0.05664063 0.394043 -0.04150391
v 0.05151367 0.4394531 -0.03833008
v 0.05664063 0.4086914 0.04394531
v 0.04394531 0.467041 0.03271484
v 0 0.4104004 0.06274414
v 0 0.4909668 0.0456543
v -0.05664063 0.4086914 0.04394531
v -0.04394531 0.467041 0.01953125
v -0.05664063 0.394043 -0.04150391
v -0.05151367 0.4394531 -0.03833008
v 0 0.392334 -0.06665039
v 0 0.4526367 -0.06103516
vn NaN 0 0
vn NaN 0 0
vn NaN 0 0
vn NaN 0 0
vn NaN 0 0
vn NaN 0 0
vn NaN 0 0
vn NaN 0 0
vn NaN 0 0
vn NaN 0 0
vn NaN 0 0
vn NaN 0 0
vn NaN 0 0
vn NaN 0 0
vt -0.0234375 -0.265625
vt -0.0390625 -0.0390625
vt -0.05078125 -0.265625
vt -0.06152344 -0.09179688
vt -0.1582031 -0.265625
vt -0.1474609 -0.1123047
vt -0.1855469 -0.265625
vt -0.1699219 -0.0390625
vt -0.1582031 -0.265625
vt -0.1474609 -0.1123047
vt -0.05078125 -0.265625
vt -0.06152344 -0.09179688
vt -0.0234375 -0.265625
vt -0.0390625 -0.0390625
f 100/100/100 101/101/101 102/102/102
f 101/101/101 103/103/103 102/102/102
f 102/102/102 103/103/103 104/104/104
f 103/103/103 105/105/105 104/104/104
f 104/104/104 105/105/105 106/106/106
f 105/105/105 107/107/107 106/106/106
f 106/106/106 107/107/107 108/108/108
f 107/107/107 109/109/109 108/108/108
f 108/108/108 109/109/109 110/110/110
f 109/109/109 111/111/111 110/110/110
f 110/110/110 111/111/111 112/112/112
f 111/111/111 113/113/113 112/112/112
v 0.07421875 0.151123 -0.03393555
v 0.0625 0.151123 -0.05541992
v 0.07788086 0.2138672 -0.04418945
v 0.06762695 0.2092285 -0.05981445
v 0.0559082 0.3012695 -0.04125977
v 0.04931641 0.2900391 -0.05541992
v 0 0.3115234 -0.03881836
v 0 0.2995605 -0.05932617
v -0.0559082 0.3012695 -0.04125977
v -0.04931641 0.2900391 -0.05541992
v -0.07788086 0.2138672 -0.04418945
v -0.06762695 0.208252 -0.05981445
v -0.07421875 0.151123 -0.03393555
v -0.06762695 0.151123 -0.05541992
vn NaN 0 0
vn NaN 0 0
vn NaN 0 0
vn NaN 0 0
vn NaN 0 0
vn NaN 0 0
vn NaN 0 0
vn NaN 0 0
vn NaN 0 0
vn NaN 0 0
vn NaN 0 0
vn NaN 0 0
vn NaN 0 0
vn NaN 0 0
vt -0.390625 -0.6591797
vt -0.3769531 -0.7060547
vt -0.4287109 -0.6621094
vt -0.4160156 -0.7070313
vt -0.4658203 -0.6728516
vt -0.4833984 -0.7080078
vt -0.4658203 -0.6728516
vt -0.4833984 -0.7226563
vt -0.4658203 -0.6728516
vt -0.4833984 -0.7080078
vt -0.4287109 -0.6621094
vt -0.4238281 -0.7011719
vt -0.390625 -0.6591797
vt -0.390625 -0.6972656
f 114/114/114 115/115/115 116/116/116
f 115/115/115 117/117/117 116/116/116
f 116/116/116 117/117/117 118/118/118
f 117/117/117 119/119/119 118/118/118
f 118/118/118 119/119/119 120/120/120
f 119/119/119 121/121/121 120/120/120
f 120/120/120 121/121/121 122/122/122
f 121/121/121 123/123/123 122/122/122
f 122/122/122 123/123/123 124/124/124
f 123/123/123 125/125/125 124/124/124
f 124/124/124 125/125/125 126/126/126
f 125/125/125 127/127/127 126/126/126
v 0.03686523 0.2785645 0.01611328
v 0.06054688 0.2138672 0.03662109
v 0.03686523 0.2841797 -0.02807617
v 0.06054688 0.2138672 -0.02807617
v 0 0.2890625 -0.03100586
v 0 0.2138672 -0.05541992
v -0.03686523 0.2841797 -0.02807617
v -0.06054688 0.2138672 -0.02807617
v -0.03686523 0.2785645 0.01611328
v -0.06054688 0.2138672 0.03662109
vn NaN 0 0
vn NaN 0 0
vn NaN 0 0
vn NaN 0 0
vn NaN 0 0
vn NaN 0 0
vn NaN 0 0
vn NaN 0 0
vn NaN 0 0
vn NaN 0 0
vt -0.4394531 -0.3183594
vt -0.3867188 -0.3027344
vt -0.4648438 -0.3691406
vt -0.3857422 -0.3671875
vt -0.4638672 -0.4111328
vt -0.3847656 -0.4111328
vt -0.4648438 -0.3691406
vt -0.3857422 -0.3671875
vt -0.4394531 -0.3183594
vt -0.3867188 -0.3027344
f 128/128/128 129/129/129 130/130/130
f 129/129/129 131/131/131 130/130/130
f 130/130/130 131/131/131 132/132/132
f 131/131/131 133/133/133 132/132/132
f 132/132/132 133/133/133 134/134/134
f 133/133/133 135/135/135 134/134/134
f 134/134/134 135/135/135 136/136/136
f 135/135/135 137/137/137 136/136/136
v -0.03686523 0.2785645 0.01611328
v -0.01147461 0.2851563 0.009277344
v -0.03686523 0.2841797 -0.02807617
v -0.009521484 0.2910156 -0.01220703
v 0 0.2890625 -0.03100586
v 0 0.2937012 -0.01513672
v 0.03686523 0.2841797 -0.02807617
v 0.009521484 0.2910156 -0.01220703
v 0.03686523 0.2785645 0.01611328
v 0.01147461 0.2851563 0.009277344
vn NaN 0 0
vn NaN 0 0
vn NaN 0 0
vn NaN 0 0
vn NaN 0 0
vn NaN 0 0
vn NaN 0 0
vn NaN 0 0
vn NaN 0 0
vn NaN 0 0
vt -0.4394531 -0.3183594
vt -0.4394531 -0.3183594
vt -0.4648438 -0.3691406
vt -0.4648438 -0.3691406
vt -0.4638672 -0.4111328
vt -0.4638672 -0.4111328
vt -0.4648438 -0.3691406
vt -0.4648438 -0.3691406
vt -0.4394531 -0.3183594
vt -0.4394531 -0.3183594
f 138/138/138 139/139/139 140/140/140
f 139/139/139 141/141/141 140/140/140
f 140/140/140 141/141/141 142/142/142
f 141/141/141 143/143/143 142/142/142
f 142/142/142 143/143/143 144/144/144
f 143/143/143 145/145/145 144/144/144
f 144/144/144 145/145/145 146/146/146
f 145/145/145 147/147/147 146/146/146
v -0.01049805 0.3330078 0.009521484
v -0.06030273 0.3359375 0.05029297
v -0.01586914 0.3354492 -0.01342773
v -0.06079102 0.345459 -0.0378418
v 0 0.3352051 -0.01513672
v 0 0.3486328 -0.06347656
v 0.01586914 0.3354492 -0.01342773
v 0.06079102 0.345459 -0.0378418
v 0.01049805 0.3330078 0.009521484
v 0.06030273 0.3359375 0.05029297
vn NaN 0 0
vn NaN 0 0
vn NaN 0 0
vn NaN 0 0
vn NaN 0 0
vn NaN 0 0
vn NaN 0 0
vn NaN 0 0
vn NaN 0 0
vn NaN 0 0
vt -0.4873047 -0.3027344
vt -0.4873047 -0.3027344
vt -0.5029297 -0.3691406
vt -0.5029297 -0.3691406
vt -0.5029297 -0.4111328
vt -0.5029297 -0.4111328
vt -0.5029297 -0.3691406
vt -0.5029297 -0.3691406
vt -0.4873047 -0.3027344
vt -0.4873047 -0.3027344
f 148/148/148 149/149/149 150/150/150
f 149/149/149 151/151/151 150/150/150
f 150/150/150 151/151/151 152/152/152
f 151/151/151 153/153/153 152/152/152
f 152/152/152 153/153/153 154/154/154
f 153/153/153 155/155/155 154/154/154
f 154/154/154 155/155/155 156/156/156
f 155/155/155 157/157/157 156/156/156
v 0.1738281 0.2727051 -0.006591797
v 0.173584 0.2729492 0.02246094
v 0.2011719 0.2678223 -0.006591797
v 0.2011719 0.2678223 0.02294922
v 0.1994629 0.2416992 -0.006591797
v 0.1994629 0.2414551 0.02294922
v 0.1733398 0.2436523 -0.006591797
v 0.173584 0.2436523 0.02294922
vn NaN 0 0
vn NaN 0 0
vn NaN 0 0
vn NaN 0 0
vn NaN 0 0
vn NaN 0 0
vn NaN 0 0
vn NaN 0 0
vt -0.2314453 -0.2382813
vt -0.2607422 -0.1220703
vt -0.3632813 -0.2431641
vt -0.3632813 -0.1220703
vt -0.4648438 -0.2470703
vt -0.4658203 -0.1210938
vt -0.6074219 -0.2451172
vt -0.6074219 -0.1230469
f 158/158/158 159/159/159 160/160/160
f 159/159/159 161/161/161 160/160/160
f 160/160/160 161/161/161 162/162/162
f 161/161/161 163/163/163 162/162/162
f 162/162/162 163/163/163 164/164/164
f 163/163/163 165/165/165 164/164/164
v -0.2011719 0.2678223 -0.006591797
v -0.173584 0.2727051 -0.006591797
v -0.1992188 0.2416992 -0.006591797
v -0.1733398 0.2436523 -0.006591797
v -0.1992188 0.2414551 0.02294922
v -0.173584 0.2436523 0.02294922
v -0.2011719 0.2678223 0.02294922
v -0.173584 0.2729492 0.02246094
vn NaN 0 0
vn NaN 0 0
vn NaN 0 0
vn NaN 0 0
vn NaN 0 0
vn NaN 0 0
vn NaN 0 0
vn NaN 0 0
vt -0.4580078 -0.3466797
vt -0.6074219 -0.3457031
vt -0.4648438 -0.2470703
vt -0.6074219 -0.2451172
vt -0.4658203 -0.1210938
vt -0.6074219 -0.1230469
vt -0.4628906 -0.03222656
vt -0.6074219 -0.03125
f 166/166/166 167/167/167 168/168/168
f 167/167/167 169/169/169 168/168/168
f 168/168/168 169/169/169 170/170/170
f 169/169/169 171/171/171 170/170/170
f 170/170/170 171/171/171 172/172/172
f 171/171/171 173/173/173 172/172/172
v -0.06030273 0.3359375 0.05029297
v -0.01049805 0.3330078 0.009521484
v 0 0.3361816 0.07568359
v 0 0.333252 0.008789063
v 0.06030273 0.3359375 0.05029297
v 0.01049805 0.3330078 0.009521484
vn NaN 0 0
vn NaN 0 0
vn NaN 0 0
vn NaN 0 0
vn NaN 0 0
vn NaN 0 0
vt -0.6582031 -0.53125
vt -0.6582031 -0.53125
vt -0.9912109 -0.5322266
vt -0.9912109 -0.5322266
vt -0.6582031 -0.53125
vt -0.6582031 -0.53125
f 174/174/174 175/175/175 176/176/176
f 175/175/175 177/177/177 176/176/176
f 176/176/176 177/177/177 178/178/178
f 177/177/177 179/179/179 178/178/178
v 0.06030273 0.3359375 0.05029297
v 0.05664063 0.4086914 0.04394531
v 0 0.3361816 0.07568359
v 0 0.4104004 0.06274414
v -0.06030273 0.3359375 0.05029297
v -0.05664063 0.4086914 0.04394531
vn NaN 0 0
vn NaN 0 0
vn NaN 0 0
vn NaN 0 0
vn NaN 0 0
vn NaN 0 0
vt -0.6582031 -0.53125
vt -0.6376953 -0.02734375
vt -0.9912109 -0.5322266
vt -0.9912109 -0.02734375
vt -0.6582031 -0.53125
vt -0.6376953 -0.02734375
f 180/180/180 181/181/181 182/182/182
f 181/181/181 183/183/183 182/182/182
f 182/182/182 183/183/183 184/184/184
f 183/183/183 185/185/185 184/184/184
v -0.173584 0.2729492 0.02246094
v -0.173584 0.2727051 -0.006591797
v -0.2011719 0.2678223 0.02294922
v -0.2011719 0.2678223 -0.006591797
v -0.1992188 0.2414551 0.02294922
v -0.1992188 0.2416992 -0.006591797
vn NaN 0 0
vn NaN 0 0
vn NaN 0 0
vn NaN 0 0
vn NaN 0 0
vn NaN 0 0
vt -0.2607422 -0.1220703
vt -0.2314453 -0.2382813
vt -0.3632813 -0.1220703
vt -0.3632813 -0.2431641
vt -0.4658203 -0.1210938
vt -0.4648438 -0.2470703
f 186/186/186 187/187/187 188/188/188
f 187/187/187 189/189/189 188/188/188
f 188/188/188 189/189/189 190/190/190
f 189/189/189 191/191/191 190/190/190
v -0.009521484 0.2910156 -0.01220703
v -0.01586914 0.3354492 -0.01342773
v 0 0.2937012 -0.01513672
v 0 0.3352051 -0.01513672
v 0.009521484 0.2910156 -0.01220703
v 0.01586914 0.3354492 -0.01342773
vn NaN 0 0
vn NaN 0 0
vn NaN 0 0
vn NaN 0 0
vn NaN 0 0
vn NaN 0 0
vt -0.4648438 -0.3691406
vt -0.5029297 -0.3691406
vt -0.4638672 -0.4111328
vt -0.5029297 -0.4111328
vt -0.4648438 -0.3691406
vt -0.5029297 -0.3691406
f 192/192/192 193/193/193 194/194/194
f 193/193/193 195/195/195 194/194/194
f 194/194/194 195/195/195 196/196/196
f 195/195/195 197/197/197 196/196/196
v 0.0378418 0.08569336 0.02319336
v 0.03833008 0.1086426 0.02978516
v 0.01074219 0.08569336 0.002441406
v 0.008056641 0.09594727 0
v 0.0378418 0.08569336 -0.01855469
v 0.03710938 0.1088867 -0.02954102
vn NaN 0 0
vn NaN 0 0
vn NaN 0 0
vn NaN 0 0
vn NaN 0 0
vn NaN 0 0
vt -0.2529297 -0.3671875
vt -0.2724609 -0.3613281
vt -0.2529297 -0.3857422
vt -0.2617188 -0.3876953
vt -0.2529297 -0.4042969
vt -0.2724609 -0.4140625
f 198/198/198 199/199/199 200/200/200
f 199/199/199 201/201/201 200/200/200
f 200/200/200 201/201/201 202/202/202
f 201/201/201 203/203/203 202/202/202
v -0.03798229 0.06151682 -0.01586914
v -0.03711027 0.01904076 -0.02172852
v -0.05092394 0.06164408 0.002197266
v -0.04785466 0.01918787 0
v -0.03920299 0.06150579 0.02050781
v -0.03930753 0.01902092 0.0168457
vn NaN 0 0
vn NaN 0 0
vn NaN 0 0
vn NaN 0 0
vn NaN 0 0
vn NaN 0 0
vt -0.2314453 -0.3486328
vt -0.1923828 -0.3417969
vt -0.2314453 -0.3320313
vt -0.1923828 -0.3339844
vt -0.2314453 -0.3164063
vt -0.1923828 -0.3271484
f 204/204/204 205/205/205 206/206/206
f 205/205/205 207/207/207 206/206/206
f 206/206/206 207/207/207 208/208/208
f 207/207/207 209/209/209 208/208/208
v -0.03711027 0.01904076 -0.02172852
v -0.03798229 0.06151682 -0.01586914
v -0.0139147 0.01900613 0
v -0.01136875 0.06151307 0.002197266
v -0.03930753 0.01902092 0.0168457
v -0.03920299 0.06150579 0.02050781
vn NaN 0 0
vn NaN 0 0
vn NaN 0 0
vn NaN 0 0
vn NaN 0 0
vn NaN 0 0
vt -0.1923828 -0.3955078
vt -0.2314453 -0.4013672
vt -0.1923828 -0.3876953
vt -0.2314453 -0.3857422
vt -0.1923828 -0.3798828
vt -0.2314453 -0.3701172
f 210/210/210 211/211/211 212/212/212
f 211/211/211 213/213/213 212/212/212
f 212/212/212 213/213/213 214/214/214
f 213/213/213 215/215/215 214/214/214
v -0.05092394 0.06164408 0.002197266
v -0.05151367 0.08569336 0.002197266
v -0.03798229 0.06151682 -0.01586914
v -0.0378418 0.08569336 -0.01855469
v -0.01136875 0.06151307 0.002197266
v -0.01074219 0.08569336 0.002441406
vn NaN 0 0
vn NaN 0 0
vn NaN 0 0
vn NaN 0 0
vn NaN 0 0
vn NaN 0 0
vt -0.8085938 -0.7617188
vt -0.8115234 -0.5644531
vt -0.7373047 -0.7617188
vt -0.7363281 -0.5644531
vt -0.5888672 -0.7617188
vt -0.5849609 -0.5644531
f 216/216/216 217/217/217 218/218/218
f 217/217/217 219/219/219 218/218/218
f 218/218/218 219/219/219 220/220/220
f 219/219/219 221/221/221 220/220/220
v -0.01136875 0.06151307 0.002197266
v -0.01074219 0.08569336 0.002441406
v -0.03920299 0.06150579 0.02050781
v -0.0378418 0.08569336 0.02319336
v -0.05092394 0.06164408 0.002197266
v -0.05151367 0.08569336 0.002197266
vn NaN 0 0
vn NaN 0 0
vn NaN 0 0
vn NaN 0 0
vn NaN 0 0
vn NaN 0 0
vt -0.5693359 -0.9892578
vt -0.5625 -0.6259766
vt -0.8544922 -0.9892578
vt -0.8417969 -0.6259766
vt -0.9755859 -0.9892578
vt -0.9814453 -0.6259766
f 222/222/222 223/223/223 224/224/224
f 223/223/223 225/225/225 224/224/224
f 224/224/224 225/225/225 226/226/226
f 225/225/225 227/227/227 226/226/226
v 0.1330566 0.2729492 0.007568359
v 0.1755371 0.2705078 0.0078125
v 0.1330566 0.2722168 -0.006347656
v 0.1755371 0.2700195 -0.004394531
v 0.1330566 0.2536621 -0.006835938
v 0.1755371 0.2536621 -0.004882813
vn NaN 0 0
vn NaN 0 0
vn NaN 0 0
vn NaN 0 0
vn NaN 0 0
vn NaN 0 0
vt -0.2216797 -0.3564453
vt -0.21875 -0.3144531
vt -0.2109375 -0.3564453
vt -0.2109375 -0.3105469
vt -0.2001953 -0.3564453
vt -0.203125 -0.3105469
f 228/228/228 229/229/229 230/230/230
f 229/229/229 231/231/231 230/230/230
f 230/230/230 231/231/231 232/232/232
f 231/231/231 233/233/233 232/232/232
v -0.1755371 0.2705078 0.0078125
v -0.1330566 0.2729492 0.007568359
v -0.1755371 0.2700195 -0.004394531
v -0.1330566 0.2722168 -0.006347656
v -0.1755371 0.2536621 -0.004882813
v -0.1330566 0.2536621 -0.006835938
vn NaN 0 0
vn NaN 0 0
vn NaN 0 0
vn NaN 0 0
vn NaN 0 0
vn NaN 0 0
vt -0.21875 -0.3144531
vt -0.2216797 -0.3564453
vt -0.2109375 -0.3105469
vt -0.2109375 -0.3564453
vt -0.203125 -0.3105469
vt -0.2001953 -0.3564453
f 234/234/234 235/235/235 236/236/236
f 235/235/235 237/237/237 236/236/236
f 236/236/236 237/237/237 238/238/238
f 237/237/237 239/239/239 238/238/238
v 0.1032715 0.2521973 -0.008300781
v 0.1330566 0.2536621 -0.006835938
v 0.1032715 0.2529297 0.008300781
v 0.1330566 0.2541504 0.007080078
v 0.1032715 0.2744141 0.009033203
v 0.1330566 0.2729492 0.007568359
vn NaN 0 0
vn NaN 0 0
vn NaN 0 0
vn NaN 0 0
vn NaN 0 0
vn NaN 0 0
vt -0.1591797 -0.3886719
vt -0.1611328 -0.3564453
vt -0.171875 -0.3886719
vt -0.171875 -0.3564453
vt -0.1845703 -0.3886719
vt -0.1826172 -0.3564453
f 240/240/240 241/241/241 242/242/242
f 241/241/241 243/243/243 242/242/242
f 242/242/242 243/243/243 244/244/244
f 243/243/243 245/245/245 244/244/244
v 0.03711027 0.01904076 -0.02172852
v 0.03798229 0.06151682 -0.01586914
v 0.04785466 0.01918787 0
v 0.05092394 0.06164408 0.002197266
v 0.03930753 0.01902092 0.0168457
v 0.03920299 0.06150579 0.02050781
vn NaN 0 0
vn NaN 0 0
vn NaN 0 0
vn NaN 0 0
vn NaN 0 0
vn NaN 0 0
vt -0.1923828 -0.3417969
vt -0.2314453 -0.3486328
vt -0.1923828 -0.3339844
vt -0.2314453 -0.3320313
vt -0.1923828 -0.3271484
vt -0.2314453 -0.3164063
f 246/246/246 247/247/247 248/248/248
f 247/247/247 249/249/249 248/248/248
f 248/248/248 249/249/249 250/250/250
f 249/249/249 251/251/251 250/250/250
v 0.03798229 0.06151682 -0.01586914
v 0.03711027 0.01904076 -0.02172852
v 0.01136875 0.06151307 0.002197266
v 0.0139147 0.01900613 0
v 0.03920299 0.06150579 0.02050781
v 0.03930753 0.01902092 0.0168457
vn NaN 0 0
vn NaN 0 0
vn NaN 0 0
vn NaN 0 0
vn NaN 0 0
vn NaN 0 0
vt -0.2314453 -0.4013672
vt -0.1923828 -0.3955078
vt -0.2314453 -0.3857422
vt -0.1923828 -0.3876953
vt -0.2314453 -0.3701172
vt -0.1923828 -0.3798828
f 252/252/252 253/253/253 254/254/254
f 253/253/253 255/255/255 254/254/254
f 254/254/254 255/255/255 256/256/256
f 255/255/255 257/257/257 256/256/256
v 0.05151367 0.08569336 0.002197266
v 0.05092394 0.06164408 0.002197266
v 0.0378418 0.08569336 -0.01855469
v 0.03798229 0.06151682 -0.01586914
v 0.01074219 0.08569336 0.002441406
v 0.01136875 0.06151307 0.002197266
vn NaN 0 0
vn NaN 0 0
vn NaN 0 0
vn NaN 0 0
vn NaN 0 0
vn NaN 0 0
vt -0.5849609 -0.5644531
vt -0.5878906 -0.7617188
vt -0.6601563 -0.5644531
vt -0.6601563 -0.7617188
vt -0.8115234 -0.5644531
vt -0.8085938 -0.7617188
f 258/258/258 259/259/259 260/260/260
f 259/259/259 261/261/261 260/260/260
f 260/260/260 261/261/261 262/262/262
f 261/261/261 263/263/263 262/262/262
v 0.01074219 0.08569336 0.002441406
v 0.01136875 0.06151307 0.002197266
v 0.0378418 0.08569336 0.02319336
v 0.03920299 0.06150579 0.02050781
v 0.05151367 0.08569336 0.002197266
v 0.05092394 0.06164408 0.002197266
vn NaN 0 0
vn NaN 0 0
vn NaN 0 0
vn NaN 0 0
vn NaN 0 0
vn NaN 0 0
vt -1.110352 -0.6259766
vt -1.103516 -0.9892578
vt -0.8310547 -0.6259766
vt -0.8173828 -0.9892578
vt -0.6914063 -0.6259766
vt -0.6962891 -0.9892578
f 264/264/264 265/265/265 266/266/266
f 265/265/265 267/267/267 266/266/266
f 266/266/266 267/267/267 268/268/268
f 267/267/267 269/269/269 268/268/268
v 0.03686523 0.2785645 0.01611328
v 0.01147461 0.2851563 0.009277344
v 0 0.2751465 0.02832031
v 0 0.2851563 0.009277344
v -0.03686523 0.2785645 0.01611328
v -0.01147461 0.2851563 0.009277344
vn NaN 0 0
vn NaN 0 0
vn NaN 0 0
vn NaN 0 0
vn NaN 0 0
vn NaN 0 0
vt -0.6376953 -0.6796875
vt -0.6376953 -0.6796875
vt -0.9912109 -0.6796875
vt -0.9912109 -0.6796875
vt -0.6376953 -0.6796875
vt -0.6376953 -0.6796875
f 270/270/270 271/271/271 272/272/272
f 271/271/271 273/273/273 272/272/272
f 272/272/272 273/273/273 274/274/274
f 273/273/273 275/275/275 274/274/274
v -0.1755371 0.2541504 0.007324219
v -0.1755371 0.2536621 -0.004882813
v -0.1330566 0.2541504 0.007080078
v -0.1330566 0.2536621 -0.006835938
v -0.1032715 0.2529297 0.008300781
v -0.1032715 0.2521973 -0.008300781
vn NaN 0 0
vn NaN 0 0
vn NaN 0 0
vn NaN 0 0
vn NaN 0 0
vn NaN 0 0
vt -0.171875 -0.3144531
vt -0.1640625 -0.3105469
vt -0.171875 -0.3564453
vt -0.1611328 -0.3564453
vt -0.171875 -0.3886719
vt -0.1591797 -0.3886719
f 276/276/276 277/277/277 278/278/278
f 277/277/277 279/279/279 278/278/278
f 278/278/278 279/279/279 280/280/280
f 279/279/279 281/281/281 280/280/280
v 0.05664063 0.394043 -0.04150391
v 0.06079102 0.345459 -0.0378418
v 0 0.392334 -0.06665039
v 0 0.3486328 -0.06347656
v -0.05664063 0.394043 -0.04150391
v -0.06079102 0.345459 -0.0378418
vn NaN 0 0
vn NaN 0 0
vn NaN 0 0
vn NaN 0 0
vn NaN 0 0
vn NaN 0 0
vt -0.5419922 -0.3691406
vt -0.5029297 -0.3691406
vt -0.5410156 -0.4111328
vt -0.5029297 -0.4111328
vt -0.5419922 -0.3691406
vt -0.5029297 -0.3691406
f 282/282/282 283/283/283 284/284/284
f 283/283/283 285/285/285 284/284/284
f 284/284/284 285/285/285 286/286/286
f 285/285/285 287/287/287 286/286/286
v -0.03710938 0.1086426 -0.02954102
v -0.0378418 0.08569336 -0.01855469
v -0.06811523 0.151123 -0.009765625
v -0.05151367 0.08569336 0.002197266
v -0.03833008 0.1086426 0.02978516
v -0.0378418 0.08569336 0.02319336
vn NaN 0 0
vn NaN 0 0
vn NaN 0 0
vn NaN 0 0
vn NaN 0 0
vn NaN 0 0
vt -0.2724609 -0.3603516
vt -0.2519531 -0.3505859
vt -0.3095703 -0.3339844
vt -0.2519531 -0.3320313
vt -0.2724609 -0.3085938
vt -0.2519531 -0.3144531
f 288/288/288 289/289/289 290/290/290
f 289/289/289 291/291/291 290/290/290
f 290/290/290 291/291/291 292/292/292
f 291/291/291 293/293/293 292/292/292
v -0.0378418 0.08569336 -0.01855469
v -0.03710938 0.1086426 -0.02954102
v -0.01074219 0.08569336 0.002441406
v -0.008056641 0.09594727 0
v -0.0378418 0.08569336 0.02319336
v -0.03833008 0.1086426 0.02978516
vn NaN 0 0
vn NaN 0 0
vn NaN 0 0
vn NaN 0 0
vn NaN 0 0
vn NaN 0 0
vt -0.2529297 -0.4042969
vt -0.2724609 -0.4140625
vt -0.2529297 -0.3857422
vt -0.2617188 -0.3876953
vt -0.2529297 -0.3671875
vt -0.2724609 -0.3613281
f 294/294/294 295/295/295 296/296/296
f 295/295/295 297/297/297 296/296/296
f 296/296/296 297/297/297 298/298/298
f 297/297/297 299/299/299 298/298/298
v 0.03833008 0.1086426 0.02978516
v 0.0378418 0.08569336 0.02319336
v 0.06811523 0.151123 -0.009765625
v 0.05151367 0.08569336 0.002197266
v 0.03710938 0.1088867 -0.02954102
v 0.0378418 0.08569336 -0.01855469
vn NaN 0 0
vn NaN 0 0
vn NaN 0 0
vn NaN 0 0
vn NaN 0 0
vn NaN 0 0
vt -0.2724609 -0.3085938
vt -0.2519531 -0.3144531
vt -0.3095703 -0.3339844
vt -0.2519531 -0.3320313
vt -0.2724609 -0.3603516
vt -0.2519531 -0.3505859
f 300/300/300 301/301/301 302/302/302
f 301/301/301 303/303/303 302/302/302
f 302/302/302 303/303/303 304/304/304
f 303/303/303 305/305/305 304/304/304
v 0.1330566 0.2536621 -0.006835938
v 0.1755371 0.2536621 -0.004882813
v 0.1330566 0.2541504 0.007080078
v 0.1755371 0.2541504 0.007324219
v 0.1330566 0.2729492 0.007568359
v 0.1755371 0.2705078 0.0078125
vn NaN 0 0
vn NaN 0 0
vn NaN 0 0
vn NaN 0 0
vn NaN 0 0
vn NaN 0 0
vt -0.1611328 -0.3564453
vt -0.1640625 -0.3105469
vt -0.171875 -0.3564453
vt -0.171875 -0.3144531
vt -0.1826172 -0.3564453
vt -0.1796875 -0.3144531
f 306/306/306 307/307/307 308/308/308
f 307/307/307 309/309/309 308/308/308
f 308/308/308 309/309/309 310/310/310
f 309/309/309 311/311/311 310/310/310
v -0.1755371 0.2705078 0.0078125
v -0.1755371 0.2541504 0.007324219
v -0.1330566 0.2729492 0.007568359
v -0.1330566 0.2541504 0.007080078
v -0.1032715 0.2744141 0.009033203
v -0.1032715 0.2529297 0.008300781
vn NaN 0 0
vn NaN 0 0
vn NaN 0 0
vn NaN 0 0
vn NaN 0 0
vn NaN 0 0
vt -0.1796875 -0.3144531
vt -0.171875 -0.3144531
vt -0.1826172 -0.3564453
vt -0.171875 -0.3564453
vt -0.1845703 -0.3886719
vt -0.171875 -0.3886719
f 312/312/312 313/313/313 314/314/314
f 313/313/313 315/315/315 314/314/314
f 314/314/314 315/315/315 316/316/316
f 315/315/315 317/317/317 316/316/316
v 0.07788086 0.2138672 -0.04418945
v 0.0559082 0.3012695 -0.04125977
v 0 0.2138672 -0.009033203
v 0 0.2817383 -0.02246094
v -0.07788086 0.2138672 -0.04418945
v -0.0559082 0.3012695 -0.04125977
vn NaN 0 0
vn NaN 0 0
vn NaN 0 0
vn NaN 0 0
vn NaN 0 0
vn NaN 0 0
vt -0.2109375 -0.7753906
vt -0.2138672 -0.7773438
vt -0.2109375 -0.7705078
vt -0.2138672 -0.7705078
vt -0.2109375 -0.7753906
vt -0.2138672 -0.7773438
f 318/318/318 319/319/319 320/320/320
f 319/319/319 321/321/321 320/320/320
f 320/320/320 321/321/321 322/322/322
f 321/321/321 323/323/323 322/322/322
v 0.07421875 0.151123 -0.03393555
v 0.07788086 0.2138672 -0.04418945
v 0 0.1484375 -0.009033203
v 0 0.2138672 -0.009033203
v -0.07421875 0.151123 -0.03393555
v -0.07788086 0.2138672 -0.04418945
vn NaN 0 0
vn NaN 0 0
vn NaN 0 0
vn NaN 0 0
vn NaN 0 0
vn NaN 0 0
vt -0.2080078 -0.7753906
vt -0.2109375 -0.7753906
vt -0.2080078 -0.7705078
vt -0.2109375 -0.7705078
vt -0.2080078 -0.7753906
vt -0.2109375 -0.7753906
f 324/324/324 325/325/325 326/326/326
f 325/325/325 327/327/327 326/326/326
f 326/326/326 327/327/327 328/328/328
f 327/327/327 329/329/329 328/328/328
v -0.04418945 0.151123 -0.04077148
v -0.06054688 0.2138672 -0.02807617
v 0 0.1484375 -0.05541992
v 0 0.2138672 -0.05541992
v 0.04418945 0.151123 -0.04077148
v 0.06054688 0.2138672 -0.02807617
vn NaN 0 0
vn NaN 0 0
vn NaN 0 0
vn NaN 0 0
vn NaN 0 0
vn NaN 0 0
vt -0.3300781 -0.3720703
vt -0.3857422 -0.3671875
vt -0.328125 -0.4111328
vt -0.3847656 -0.4111328
vt -0.3300781 -0.3720703
vt -0.3857422 -0.3671875
f 330/330/330 331/331/331 332/332/332
f 331/331/331 333/333/333 332/332/332
f 332/332/332 333/333/333 334/334/334
f 333/333/333 335/335/335 334/334/334
v 0.06054688 0.2138672 0.03662109
v 0.03686523 0.2785645 0.01611328
v 0 0.2138672 0.05541992
v 0 0.2751465 0.02832031
v -0.06054688 0.2138672 0.03662109
v -0.03686523 0.2785645 0.01611328
vn NaN 0 0
vn NaN 0 0
vn NaN 0 0
vn NaN 0 0
vn NaN 0 0
vn NaN 0 0
vt 0.9150391 -0.6074219
vt 0.8242188 -0.3808594
vt 0.6835938 -0.6074219
vt 0.6835938 -0.3935547
vt 0.4511719 -0.6074219
vt 0.5419922 -0.3808594
f 336/336/336 337/337/337 338/338/338
f 337/337/337 339/339/339 338/338/338
f 338/338/338 339/339/339 340/340/340
f 339/339/339 341/341/341 340/340/340
v -0.06054688 0.2138672 0.03662109
v -0.05541992 0.151123 0.04614258
v 0 0.2138672 0.05541992
v 0 0.1484375 0.06054688
v 0.06054688 0.2138672 0.03662109
v 0.05541992 0.151123 0.04614258
vn NaN 0 0
vn NaN 0 0
vn NaN 0 0
vn NaN 0 0
vn NaN 0 0
vn NaN 0 0
vt 0.4511719 -0.6074219
vt 0.4716797 -0.8251953
vt 0.6835938 -0.6074219
vt 0.6835938 -0.8349609
vt 0.9150391 -0.6074219
vt 0.8955078 -0.8251953
f 342/342/342 343/343/343 344/344/344
f 343/343/343 345/345/345 344/344/344
f 344/344/344 345/345/345 346/346/346
f 345/345/345 347/347/347 346/346/346
v -0.0139147 0.01900613 0
v -0.01692533 0.000911057 -0.01953125
v -0.03711027 0.01904076 -0.02172852
v -0.04866582 0.0008684993 -0.0246582
v -0.04785466 0.01918787 0
v -0.07283795 0.0008943081 0.07055664
v -0.06419444 0.01708698 0.07373047
v -0.04329473 0.0009170175 0.08105469
vn NaN 0 0
vn NaN 0 0
vn NaN 0 0
vn NaN 0 0
vn NaN 0 0
vn NaN 0 0
vn NaN 0 0
vn NaN 0 0
vt 0.0009765625 -0.5488281
vt -0.006835938 -0.5332031
vt 0.008789063 -0.5429688
vt 0.0234375 -0.5332031
vt 0.01660156 -0.5507813
vt 0.046875 -0.6142578
vt 0.01171875 -0.6142578
vt 0.01171875 -0.6240234
f 348/348/348 349/349/349 350/350/350
f 349/349/349 351/351/351 350/350/350
f 350/350/350 351/351/351 352/352/352
f 351/351/351 353/353/353 352/352/352
f 352/352/352 353/353/353 354/354/354
f 353/353/353 355/355/355 354/354/354
v 0.01692533 0.000911057 -0.01953125
v 0.01399565 0.0009375215 0.08618164
v 0.0139147 0.01900613 0
v 0.01631421 0.01434541 0.08422852
v 0.03930753 0.01902092 0.0168457
v 0.06443638 0.01684064 0.07470703
vn NaN 0 0
vn NaN 0 0
vn NaN 0 0
vn NaN 0 0
vn NaN 0 0
vn NaN 0 0
vt -0.006835938 -0.5332031
vt -0.02441406 -0.6142578
vt 0.0009765625 -0.5488281
vt -0.01074219 -0.6152344
vt 0.008789063 -0.5566406
vt 0.01171875 -0.6152344
f 356/356/356 357/357/357 358/358/358
f 357/357/357 359/359/359 358/358/358
f 358/358/358 359/359/359 360/360/360
f 359/359/359 361/361/361 360/360/360
v 0.03710938 0.1088867 -0.02954102
v 0.04418945 0.151123 -0.04077148
v 0.06811523 0.151123 -0.009765625
v 0.06054688 0.2138672 -0.02807617
v 0.06054688 0.2138672 0.03662109
vn NaN 0 0
vn NaN 0 0
vn NaN 0 0
vn NaN 0 0
vn NaN 0 0
vt -0.2939453 -0.3613281
vt -0.3300781 -0.3720703
vt -0.3310547 -0.3349609
vt -0.3857422 -0.3671875
vt -0.3867188 -0.3027344
f 362/362/362 363/363/363 364/364/364
f 363/363/363 365/365/365 364/364/364
f 364/364/364 365/365/365 366/366/366
v -0.04370117 0.2502441 -0.01269531
v -0.1032715 0.2521973 -0.008300781
v -0.03833008 0.2805176 -0.01391602
v -0.1032715 0.2736816 -0.007568359
v -0.1032715 0.2744141 0.009033203
vn NaN 0 0
vn NaN 0 0
vn NaN 0 0
vn NaN 0 0
vn NaN 0 0
vt -0.1914063 -0.4296875
vt -0.1982422 -0.3886719
vt -0.2109375 -0.4296875
vt -0.2109375 -0.3886719
vt -0.2236328 -0.3886719
f 367/367/367 368/368/368 369/369/369
f 368/368/368 370/370/370 369/369/369
f 369/369/369 370/370/370 371/371/371
v -0.03833008 0.1086426 0.02978516
v -0.05541992 0.151123 0.04614258
v -0.06811523 0.151123 -0.009765625
v -0.06054688 0.2138672 0.03662109
v -0.06054688 0.2138672 -0.02807617
vn NaN 0 0
vn NaN 0 0
vn NaN 0 0
vn NaN 0 0
vn NaN 0 0
vt -0.2939453 -0.3085938
vt -0.3310547 -0.2988281
vt -0.3310547 -0.3349609
vt -0.3867188 -0.3027344
vt -0.3857422 -0.3671875
f 372/372/372 373/373/373 374/374/374
f 373/373/373 375/375/375 374/374/374
f 374/374/374 375/375/375 376/376/376
v -0.03833008 0.1086426 0.02978516
v -0.008056641 0.09594727 0
v 0 0.1079102 0.03637695
v 0.008056641 0.09594727 0
v 0.03833008 0.1086426 0.02978516
vn NaN 0 0
vn NaN 0 0
vn NaN 0 0
vn NaN 0 0
vn NaN 0 0
vt -0.2949219 -0.2929688
vt -0.2792969 -0.2734375
vt -0.2939453 -0.2587891
vt -0.2792969 -0.2734375
vt -0.2949219 -0.2929688
f 377/377/377 378/378/378 379/379/379
f 378/378/378 380/380/380 379/379/379
f 379/379/379 380/380/380 381/381/381
v 0.04370117 0.2502441 -0.01269531
v 0.1032715 0.2521973 -0.008300781
v 0.04370117 0.2495117 0.01391602
v 0.1032715 0.2529297 0.008300781
v 0.1032715 0.2744141 0.009033203
vn NaN 0 0
vn NaN 0 0
vn NaN 0 0
vn NaN 0 0
vn NaN 0 0
vt -0.1523438 -0.4296875
vt -0.1591797 -0.3886719
vt -0.171875 -0.4296875
vt -0.171875 -0.3886719
vt -0.1845703 -0.3886719
f 382/382/382 383/383/383 384/384/384
f 383/383/383 385/385/385 384/384/384
f 384/384/384 385/385/385 386/386/386
v 0.01147461 0.2851563 0.009277344
v 0.01049805 0.3330078 0.009521484
v 0 0.2851563 0.009277344
v 0 0.333252 0.008789063
v -0.01049805 0.3330078 0.009521484
vn NaN 0 0
vn NaN 0 0
vn NaN 0 0
vn NaN 0 0
vn NaN 0 0
vt -0.6376953 -0.6796875
vt -0.6582031 -0.53125
vt -0.9912109 -0.6796875
vt -0.9912109 -0.5322266
vt -0.6582031 -0.53125
f 387/387/387 388/388/388 389/389/389
f 388/388/388 390/390/390 389/389/389
f 389/389/389 390/390/390 391/391/391
v -0.07283795 0.0008943081 0.07055664
v -0.04866582 0.0008684993 -0.0246582
v -0.04329473 0.0009170175 0.08105469
v -0.01692533 0.000911057 -0.01953125
v -0.01399565 0.0009375215 0.08618164
vn NaN 0 0
vn NaN 0 0
vn NaN 0 0
vn NaN 0 0
vn NaN 0 0
vt -0.1054688 -0.6123047
vt -0.08398438 -0.5332031
vt -0.06835938 -0.6220703
vt -0.05175781 -0.5322266
vt -0.03125 -0.6132813
f 392/392/392 393/393/393 394/394/394
f 393/393/393 395/395/395 394/394/394
f 394/394/394 395/395/395 396/396/396
v 0.04329473 0.0009170175 0.08105469
v 0.07283795 0.0008943081 0.07055664
v 0.06443638 0.01684064 0.07470703
v 0.04785466 0.01918787 0
v 0.03930753 0.01902092 0.0168457
vn NaN 0 0
vn NaN 0 0
vn NaN 0 0
vn NaN 0 0
vn NaN 0 0
vt 0.01171875 -0.6240234
vt 0.046875 -0.6142578
vt 0.01171875 -0.6152344
vt 0.01660156 -0.5507813
vt 0.008789063 -0.5566406
f 397/397/397 398/398/398 399/399/399
f 398/398/398 400/400/400 399/399/399
f 399/399/399 400/400/400 401/401/401
v 0.05151367 0.4394531 -0.03833008
v 0 0.4526367 -0.06103516
v 0 0.4501953 -0.009765625
v -0.05151367 0.4394531 -0.03833008
v -0.04394531 0.467041 0.01953125
vn NaN 0 0
vn NaN 0 0
vn NaN 0 0
vn NaN 0 0
vn NaN 0 0
vt -0.06152344 -0.09179688
vt -0.0390625 -0.0390625
vt -0.1044922 -0.0390625
vt -0.06152344 -0.09179688
vt -0.1474609 -0.1123047
f 402/402/402 403/403/403 404/404/404
f 403/403/403 405/405/405 404/404/404
f 404/404/404 405/405/405 406/406/406
v 0.03710938 0.1088867 -0.02954102
v 0.008056641 0.09594727 0
v 0 0.1079102 -0.03540039
v -0.008056641 0.09594727 0
v -0.03710938 0.1086426 -0.02954102
vn NaN 0 0
vn NaN 0 0
vn NaN 0 0
vn NaN 0 0
vn NaN 0 0
vt -0.2929688 -0.3789063
vt -0.2773438 -0.3964844
vt -0.2919922 -0.4111328
vt -0.2773438 -0.3964844
vt -0.2929688 -0.3789063
f 407/407/407 408/408/408 409/409/409
f 408/408/408 410/410/410 409/409/409
f 409/409/409 410/410/410 411/411/411
v -0.03710938 0.1086426 -0.02954102
v -0.04418945 0.151123 -0.04077148
v 0 0.1079102 -0.03540039
v 0 0.1484375 -0.05541992
v 0.04418945 0.151123 -0.04077148
vn NaN 0 0
vn NaN 0 0
vn NaN 0 0
vn NaN 0 0
vn NaN 0 0
vt -0.2929688 -0.3789063
vt -0.3300781 -0.3720703
vt -0.2919922 -0.4111328
vt -0.328125 -0.4111328
vt -0.3300781 -0.3720703
f 412/412/412 413/413/413 414/414/414
f 413/413/413 415/415/415 414/414/414
f 414/414/414 415/415/415 416/416/416
v -0.0139147 0.01900613 0
v -0.03930753 0.01902092 0.0168457
v -0.01803201 0.01530653 0.08349609
v -0.06419444 0.01708698 0.07373047
vn NaN 0 0
vn NaN 0 0
vn NaN 0 0
vn NaN 0 0
vt 0.0009765625 -0.5488281
vt 0.008789063 -0.5566406
vt -0.008789063 -0.6142578
vt 0.01171875 -0.6142578
f 417/417/417 418/418/418 419/419/419
f 418/418/418 420/420/420 419/419/419
v 0.01586914 0.3354492 -0.01342773
v 0.01049805 0.3330078 0.009521484
v 0.009521484 0.2910156 -0.01220703
v 0.01147461 0.2851563 0.009277344
vn NaN 0 0
vn NaN 0 0
vn NaN 0 0
vn NaN 0 0
vt -0.5029297 -0.3691406
vt -0.4873047 -0.3027344
vt -0.4648438 -0.3691406
vt -0.4394531 -0.3183594
f 421/421/421 422/422/422 423/423/423
f 422/422/422 424/424/424 423/423/423
v -0.01147461 0.2851563 0.009277344
v -0.01049805 0.3330078 0.009521484
v -0.009521484 0.2910156 -0.01220703
v -0.01586914 0.3354492 -0.01342773
vn NaN 0 0
vn NaN 0 0
vn NaN 0 0
vn NaN 0 0
vt -0.4394531 -0.3183594
vt -0.4873047 -0.3027344
vt -0.4648438 -0.3691406
vt -0.5029297 -0.3691406
f 425/425/425 426/426/426 427/427/427
f 426/426/426 428/428/428 427/427/427
v 0.04370117 0.2502441 -0.01269531
v 0.03833008 0.2805176 -0.01391602
v 0.1032715 0.2521973 -0.008300781
v 0.1032715 0.2736816 -0.007568359
vn NaN 0 0
vn NaN 0 0
vn NaN 0 0
vn NaN 0 0
vt -0.1914063 -0.4296875
vt -0.2109375 -0.4296875
vt -0.1982422 -0.3886719
vt -0.2109375 -0.3886719
f 429/429/429 430/430/430 431/431/431
f 430/430/430 432/432/432 431/431/431
v 0.03637695 0.2790527 0.01342773
v 0.1032715 0.2744141 0.009033203
v 0.03833008 0.2805176 -0.01391602
v 0.1032715 0.2736816 -0.007568359
vn NaN 0 0
vn NaN 0 0
vn NaN 0 0
vn NaN 0 0
vt -0.2304688 -0.4296875
vt -0.2236328 -0.3886719
vt -0.2109375 -0.4296875
vt -0.2109375 -0.3886719
f 433/433/433 434/434/434 435/435/435
f 434/434/434 436/436/436 435/435/435
v -0.03833008 0.1086426 0.02978516
v 0 0.1079102 0.03637695
v -0.05541992 0.151123 0.04614258
v 0 0.1484375 0.06054688
vn NaN 0 0
vn NaN 0 0
vn NaN 0 0
vn NaN 0 0
vt 0.5361328 -0.9726563
vt 0.6835938 -0.9765625
vt 0.4716797 -0.8251953
vt 0.6835938 -0.8349609
f 437/437/437 438/438/438 439/439/439
f 438/438/438 440/440/440 439/439/439
v -0.03710938 0.1086426 -0.02954102
v -0.06811523 0.151123 -0.009765625
v -0.04418945 0.151123 -0.04077148
v -0.06054688 0.2138672 -0.02807617
vn NaN 0 0
vn NaN 0 0
vn NaN 0 0
vn NaN 0 0
vt -0.2939453 -0.3613281
vt -0.3310547 -0.3349609
vt -0.3300781 -0.3720703
vt -0.3857422 -0.3671875
f 441/441/441 442/442/442 443/443/443
f 442/442/442 444/444/444 443/443/443
v 0.07421875 0.151123 -0.03393555
v 0 0.1484375 -0.009033203
v 0 0.1064453 -0.04272461
v -0.07421875 0.151123 -0.03393555
vn NaN 0 0
vn NaN 0 0
vn NaN 0 0
vn NaN 0 0
vt -0.2080078 -0.7753906
vt -0.2080078 -0.7705078
vt -0.2060547 -0.7705078
vt -0.2080078 -0.7753906
f 445/445/445 446/446/446 447/447/447
f 446/446/446 448/448/448 447/447/447
v -0.04370117 0.2502441 -0.01269531
v -0.04370117 0.2495117 0.01391602
v -0.1032715 0.2521973 -0.008300781
v -0.1032715 0.2529297 0.008300781
vn NaN 0 0
vn NaN 0 0
vn NaN 0 0
vn NaN 0 0
vt -0.1523438 -0.4296875
vt -0.171875 -0.4296875
vt -0.1591797 -0.3886719
vt -0.171875 -0.3886719
f 449/449/449 450/450/450 451/451/451
f 450/450/450 452/452/452 451/451/451
v 0.07421875 0.151123 -0.03393555
v 0 0.1064453 -0.04272461
v 0.03833008 0.1159668 -0.04907227
v 0 0.109375 -0.06445313
vn NaN 0 0
vn NaN 0 0
vn NaN 0 0
vn NaN 0 0
vt -0.390625 -0.6591797
vt -0.3642578 -0.6318359
vt -0.3652344 -0.6552734
vt -0.3544922 -0.6416016
f 453/453/453 454/454/454 455/455/455
f 454/454/454 456/456/456 455/455/455
v 0.03833008 0.1086426 0.02978516
v 0.05541992 0.151123 0.04614258
v 0 0.1079102 0.03637695
v 0 0.1484375 0.06054688
vn NaN 0 0
vn NaN 0 0
vn NaN 0 0
vn NaN 0 0
vt 0.8300781 -0.9726563
vt 0.8955078 -0.8251953
vt 0.6835938 -0.9765625
vt 0.6835938 -0.8349609
f 457/457/457 458/458/458 459/459/459
f 458/458/458 460/460/460 459/459/459
v 0 0.109375 -0.06445313
v 0 0.1064453 -0.04272461
v -0.03833008 0.1159668 -0.04907227
v -0.07421875 0.151123 -0.03393555
vn NaN 0 0
vn NaN 0 0
vn NaN 0 0
vn NaN 0 0
vt -0.3544922 -0.6416016
vt -0.3642578 -0.6318359
vt -0.3652344 -0.6552734
vt -0.390625 -0.6591797
f 461/461/461 462/462/462 463/463/463
f 462/462/462 464/464/464 463/463/463
v 0.07283795 0.0008943081 0.07055664
v 0.04329473 0.0009170175 0.08105469
v 0.04866582 0.0008684993 -0.0246582
v 0.01692533 0.000911057 -0.01953125
vn NaN 0 0
vn NaN 0 0
vn NaN 0 0
vn NaN 0 0
vt -0.1054688 -0.6123047
vt -0.06835938 -0.6220703
vt -0.08398438 -0.5332031
vt -0.05175781 -0.5322266
f 465/465/465 466/466/466 467/467/467
f 466/466/466 468/468/468 467/467/467
v 0.07283795 0.0008943081 0.07055664
v 0.04866582 0.0008684993 -0.0246582
v 0.04785466 0.01918787 0
v 0.03711027 0.01904076 -0.02172852
vn NaN 0 0
vn NaN 0 0
vn NaN 0 0
vn NaN 0 0
vt 0.046875 -0.6142578
vt 0.0234375 -0.5332031
vt 0.01660156 -0.5507813
vt 0.008789063 -0.5429688
f 469/469/469 470/470/470 471/471/471
f 470/470/470 472/472/472 471/471/471
v 0.04866582 0.0008684993 -0.0246582
v 0.01692533 0.000911057 -0.01953125
v 0.03711027 0.01904076 -0.02172852
v 0.0139147 0.01900613 0
vn NaN 0 0
vn NaN 0 0
vn NaN 0 0
vn NaN 0 0
vt 0.0234375 -0.5332031
vt -0.006835938 -0.5332031
vt 0.008789063 -0.5429688
vt 0.0009765625 -0.5488281
f 473/473/473 474/474/474 475/475/475
f 474/474/474 476/476/476 475/475/475
v 0.03833008 0.1086426 0.02978516
v 0.06811523 0.151123 -0.009765625
v 0.05541992 0.151123 0.04614258
v 0.06054688 0.2138672 0.03662109
vn NaN 0 0
vn NaN 0 0
vn NaN 0 0
vn NaN 0 0
vt -0.2939453 -0.3085938
vt -0.3310547 -0.3349609
vt -0.3310547 -0.2988281
vt -0.3867188 -0.3027344
f 477/477/477 478/478/478 479/479/479
f 478/478/478 480/480/480 479/479/479
v -0.03637695 0.2790527 0.01342773
v -0.1032715 0.2744141 0.009033203
v -0.04370117 0.2495117 0.01391602
v -0.1032715 0.2529297 0.008300781
vn NaN 0 0
vn NaN 0 0
vn NaN 0 0
vn NaN 0 0
vt -0.1914063 -0.4296875
vt -0.1845703 -0.3886719
vt -0.171875 -0.4296875
vt -0.171875 -0.3886719
f 481/481/481 482/482/482 483/483/483
f 482/482/482 484/484/484 483/483/483
v 0.05151367 0.4394531 -0.03833008
v 0 0.4501953 -0.009765625
v 0.04394531 0.467041 0.03271484
v 0 0.4909668 0.0456543
vn NaN 0 0
vn NaN 0 0
vn NaN 0 0
vn NaN 0 0
vt -0.06152344 -0.09179688
vt -0.1044922 -0.0390625
vt -0.1474609 -0.1123047
vt -0.1699219 -0.0390625
f 485/485/485 486/486/486 487/487/487
f 486/486/486 488/488/488 487/487/487
v 0.0559082 0.3012695 -0.04125977
v 0 0.3115234 -0.03881836
v 0 0.2817383 -0.02246094
v -0.0559082 0.3012695 -0.04125977
vn NaN 0 0
vn NaN 0 0
vn NaN 0 0
vn NaN 0 0
vt -0.4306641 -0.7695313
vt -0.4326172 -0.7695313
vt -0.4345703 -0.7695313
vt -0.4306641 -0.7695313
f 489/489/489 490/490/490 491/491/491
f 490/490/490 492/492/492 491/491/491
v -0.01692533 0.000911057 -0.01953125
v -0.0139147 0.01900613 0
v -0.01399565 0.0009375215 0.08618164
v -0.01803201 0.01530653 0.08349609
vn NaN 0 0
vn NaN 0 0
vn NaN 0 0
vn NaN 0 0
vt -0.006835938 -0.5332031
vt 0.0009765625 -0.5488281
vt -0.02441406 -0.6142578
vt -0.008789063 -0.6142578
f 493/493/493 494/494/494 495/495/495
f 494/494/494 496/496/496 495/495/495
v -0.173584 0.2436523 0.02294922
v -0.1733398 0.2436523 -0.006591797
v -0.173584 0.2727051 -0.006591797
v -0.173584 0.2729492 0.02246094
v -0.05664063 0.394043 -0.04150391
v -0.06079102 0.345459 -0.0378418
v -0.06030273 0.3359375 0.05029297
v -0.05664063 0.4086914 0.04394531
v 0.1994629 0.2416992 -0.006591797
v 0.1733398 0.2436523 -0.006591797
v 0.1738281 0.2727051 -0.006591797
v 0.2011719 0.2678223 -0.006591797
v 0.2011719 0.2678223 0.02294922
v 0.173584 0.2729492 0.02246094
v 0.173584 0.2436523 0.02294922
v 0.1994629 0.2414551 0.02294922
v 0.173584 0.2436523 0.02294922
v 0.173584 0.2729492 0.02246094
v 0.1738281 0.2727051 -0.006591797
v 0.1733398 0.2436523 -0.006591797
v 0.05664063 0.394043 -0.04150391
v 0.05664063 0.4086914 0.04394531
v 0.06030273 0.3359375 0.05029297
v 0.06079102 0.345459 -0.0378418
v -0.1032715 0.2736816 -0.007568359
v -0.1330566 0.2722168 -0.006347656
v -0.1330566 0.2729492 0.007568359
v -0.1032715 0.2744141 0.009033203
v -0.01399565 0.0009375215 0.08618164
v -0.01803201 0.01530653 0.08349609
v -0.06419444 0.01708698 0.07373047
v -0.04329473 0.0009170175 0.08105469
v -0.1032715 0.2521973 -0.008300781
v -0.1330566 0.2536621 -0.006835938
v -0.1330566 0.2722168 -0.006347656
v -0.1032715 0.2736816 -0.007568359
v 0.1032715 0.2521973 -0.008300781
v 0.1032715 0.2736816 -0.007568359
v 0.1330566 0.2722168 -0.006347656
v 0.1330566 0.2536621 -0.006835938
v 0.01399565 0.0009375215 0.08618164
v 0.04329473 0.0009170175 0.08105469
v 0.06443638 0.01684064 0.07470703
v 0.01631421 0.01434541 0.08422852
v 0.1032715 0.2736816 -0.007568359
v 0.1032715 0.2744141 0.009033203
v 0.1330566 0.2729492 0.007568359
v 0.1330566 0.2722168 -0.006347656
vn NaN 0 0
vn NaN 0 0
vn NaN 0 0
vn NaN 0 0
vn NaN 0 0
vn NaN 0 0
vn NaN 0 0
vn NaN 0 0
vn NaN 0 0
vn NaN 0 0
vn NaN 0 0
vn NaN 0 0
vn NaN 0 0
vn NaN 0 0
vn NaN 0 0
vn NaN 0 0
vn NaN 0 0
vn NaN 0 0
vn NaN 0 0
vn NaN 0 0
vn NaN 0 0
vn NaN 0 0
vn NaN 0 0
vn NaN 0 0
vn NaN 0 0
vn NaN 0 0
vn NaN 0 0
vn NaN 0 0
vn NaN 0 0
vn NaN 0 0
vn NaN 0 0
vn NaN 0 0
vn NaN 0 0
vn NaN 0 0
vn NaN 0 0
vn NaN 0 0
vn NaN 0 0
vn NaN 0 0
vn NaN 0 0
vn NaN 0 0
vn NaN 0 0
vn NaN 0 0
vn NaN 0 0
vn NaN 0 0
vn NaN 0 0
vn NaN 0 0
vn NaN 0 0
vn NaN 0 0
vt -0.2841797 -0.05273438
vt -0.2841797 -0.078125
vt -0.3925781 -0.08496094
vt -0.4121094 -0.0390625
vt -0.6337891 -0.04003906
vt -0.5673828 -0.4775391
vt -0.6591797 -0.5273438
vt -0.6337891 -0.02832031
vt -0.4648438 -0.2470703
vt -0.6074219 -0.2451172
vt -0.6074219 -0.3457031
vt -0.4580078 -0.3466797
vt -0.4628906 -0.03222656
vt -0.6074219 -0.03125
vt -0.6074219 -0.1230469
vt -0.4658203 -0.1210938
vt -0.2841797 -0.05273438
vt -0.4121094 -0.0390625
vt -0.3925781 -0.08496094
vt -0.2841797 -0.078125
vt -0.6337891 -0.04003906
vt -0.6337891 -0.02832031
vt -0.6591797 -0.5273438
vt -0.5673828 -0.4775391
vt -0.7451172 -1.026367
vt -0.7451172 -0.6699219
vt -0.9414063 -0.6699219
vt -0.9765625 -1.026367
vt -0.02441406 -0.6142578
vt -0.008789063 -0.6142578
vt 0.01171875 -0.6142578
vt 0.01171875 -0.6240234
vt -0.1982422 -0.3886719
vt -0.2001953 -0.3564453
vt -0.2109375 -0.3564453
vt -0.2109375 -0.3886719
vt -0.1982422 -0.3886719
vt -0.2109375 -0.3886719
vt -0.2109375 -0.3564453
vt -0.2001953 -0.3564453
vt -0.02441406 -0.6142578
vt 0.01171875 -0.6240234
vt 0.01171875 -0.6152344
vt -0.01074219 -0.6152344
vt -0.7451172 -1.026367
vt -0.9765625 -1.026367
vt -0.9414063 -0.6699219
vt -0.7451172 -0.6699219
f 497/497/497 498/498/498 499/499/499 500/500/500
f 501/501/501 502/502/502 503/503/503 504/504/504
f 505/505/505 506/506/506 507/507/507 508/508/508
f 509/509/509 510/510/510 511/511/511 512/512/512
f 513/513/513 514/514/514 515/515/515 516/516/516
f 517/517/517 518/518/518 519/519/519 520/520/520
f 521/521/521 522/522/522 523/523/523 524/524/524
f 525/525/525 526/526/526 527/527/527 528/528/528
f 529/529/529 530/530/530 531/531/531 532/532/532
f 533/533/533 534/534/534 535/535/535 536/536/536
f 537/537/537 538/538/538 539/539/539 540/540/540
f 541/541/541 542/542/542 543/543/543 544/544/544
v -0.03833008 0.2805176 -0.01391602
v -0.1032715 0.2744141 0.009033203
v -0.03637695 0.2790527 0.01342773
v 0.0625 0.151123 -0.05541992
v 0.03833008 0.1159668 -0.04907227
v 0 0.109375 -0.06445313
v 0.0625 0.151123 -0.05541992
v 0.07421875 0.151123 -0.03393555
v 0.03833008 0.1159668 -0.04907227
v 0.03637695 0.2790527 0.01342773
v 0.04370117 0.2495117 0.01391602
v 0.1032715 0.2744141 0.009033203
v 0.01692533 0.000911057 -0.01953125
v 0.04329473 0.0009170175 0.08105469
v 0.01399565 0.0009375215 0.08618164
v -0.03930753 0.01902092 0.0168457
v -0.04785466 0.01918787 0
v -0.06419444 0.01708698 0.07373047
v -0.06762695 0.151123 -0.05541992
v 0 0.109375 -0.06445313
v -0.03833008 0.1159668 -0.04907227
v -0.06762695 0.151123 -0.05541992
v -0.03833008 0.1159668 -0.04907227
v -0.07421875 0.151123 -0.03393555
v -0.04394531 0.467041 0.01953125
v 0 0.4909668 0.0456543
v 0 0.4501953 -0.009765625
v -0.01147461 0.2851563 0.009277344
v 0 0.2851563 0.009277344
v -0.01049805 0.3330078 0.009521484
v 0.03710938 0.1088867 -0.02954102
v 0 0.1079102 -0.03540039
v 0.04418945 0.151123 -0.04077148
vn NaN 0 0
vn NaN 0 0
vn NaN 0 0
vn NaN 0 0
vn NaN 0 0
vn NaN 0 0
vn NaN 0 0
vn NaN 0 0
vn NaN 0 0
vn NaN 0 0
vn NaN 0 0
vn NaN 0 0
vn NaN 0 0
vn NaN 0 0
vn NaN 0 0
vn NaN 0 0
vn NaN 0 0
vn NaN 0 0
vn NaN 0 0
vn NaN 0 0
vn NaN 0 0
vn NaN 0 0
vn NaN 0 0
vn NaN 0 0
vn NaN 0 0
vn NaN 0 0
vn NaN 0 0
vn NaN 0 0
vn NaN 0 0
vn NaN 0 0
vn NaN 0 0
vn NaN 0 0
vn NaN 0 0
vt -0.2109375 -0.4296875
vt -0.2236328 -0.3886719
vt -0.2304688 -0.4296875
vt -0.3632813 -0.6933594
vt -0.3496094 -0.6660156
vt -0.3359375 -0.6826172
vt -0.3769531 -0.7060547
vt -0.390625 -0.6591797
vt -0.3642578 -0.6669922
vt -0.1914063 -0.4296875
vt -0.171875 -0.4296875
vt -0.1845703 -0.3886719
vt -0.05175781 -0.5322266
vt -0.06835938 -0.6220703
vt -0.03125 -0.6132813
vt 0.008789063 -0.5566406
vt 0.01660156 -0.5507813
vt 0.01171875 -0.6142578
vt -0.3759766 -0.6845703
vt -0.3427734 -0.6923828
vt -0.3496094 -0.6660156
vt -0.390625 -0.6972656
vt -0.3642578 -0.6669922
vt -0.390625 -0.6591797
vt -0.1474609 -0.1123047
vt -0.1699219 -0.0390625
vt -0.1044922 -0.0390625
vt -0.6376953 -0.6796875
vt -0.9912109 -0.6796875
vt -0.6582031 -0.53125
vt -0.2929688 -0.3789063
vt -0.2919922 -0.4111328
vt -0.3300781 -0.3720703
f 545/545/545 546/546/546 547/547/547
f 548/548/548 549/549/549 550/550/550
f 551/551/551 552/552/552 553/553/553
f 554/554/554 555/555/555 556/556/556
f 557/557/557 558/558/558 559/559/559
f 560/560/560 561/561/561 562/562/562
f 563/563/563 564/564/564 565/565/565
f 566/566/566 567/567/567 568/568/568
f 569/569/569 570/570/570 571/571/571
f 572/572/572 573/573/573 574/574/574
f 575/575/575 576/576/576 577/577/577
g polygon4
usemtl spin_eff1
v 0.1828613 0.1599121 -0.3168945
v 0.1828613 0.2119141 -0.3168945
v 0.3659668 0.1599121 0
v 0.3659668 0.2119141 0
v 0.1828613 0.1599121 0.3168945
v 0.1828613 0.2119141 0.3168945
vn NaN 0 0
vn NaN 0 0
vn NaN 0 0
vn NaN 0 0
vn NaN 0 0
vn NaN 0 0
vt -0.0234375 -0.7851563
vt -0.0234375 -0.5273438
vt -0.5 -0.7851563
vt -0.5 -0.5273438
vt -0.984375 -0.7851563
vt -0.984375 -0.5273438
v -0.1828613 0.1599121 0.3168945
v -0.1828613 0.2119141 0.3168945
v -0.3659668 0.1599121 0
v -0.3659668 0.2119141 0
v -0.1828613 0.1599121 -0.3168945
v -0.1828613 0.2119141 -0.3168945
vn NaN 0 0
vn NaN 0 0
vn NaN 0 0
vn NaN 0 0
vn NaN 0 0
vn NaN 0 0
vt 0.984375 -0.7851563
vt 0.984375 -0.5273438
vt 0.5078125 -0.7851563
vt 0.5078125 -0.5273438
vt 0.03125 -0.7851563
vt 0.03125 -0.5273438
v 0.1828613 0.2119141 -0.3168945
v 0.1828613 0.3139648 -0.3168945
v 0.3659668 0.2119141 0
v 0.3659668 0.3139648 0
v 0.1828613 0.2119141 0.3168945
v 0.1828613 0.3139648 0.3168945
vn NaN 0 0
vn NaN 0 0
vn NaN 0 0
vn NaN 0 0
vn NaN 0 0
vn NaN 0 0
vt -0.0234375 -0.5273438
vt -0.0234375 -0.015625
vt -0.5 -0.5273438
vt -0.5 -0.015625
vt -0.984375 -0.5273438
vt -0.984375 -0.015625
v -0.1828613 0.2119141 0.3168945
v -0.1828613 0.3139648 0.3168945
v -0.3659668 0.2119141 0
v -0.3659668 0.3139648 0
v -0.1828613 0.2119141 -0.3168945
v -0.1828613 0.3139648 -0.3168945
vn NaN 0 0
vn NaN 0 0
vn NaN 0 0
vn NaN 0 0
vn NaN 0 0
vn NaN 0 0
vt 0.984375 -0.5273438
vt 0.984375 -0.015625
vt 0.5078125 -0.5273438
vt 0.5078125 -0.015625
vt 0.03125 -0.5273438
vt 0.03125 -0.015625
v 0.1828613 0.1201172 -0.3168945
v 0.1828613 0.1599121 -0.3168945
v 0.3659668 0.1201172 0
v 0.3659668 0.1599121 0
v 0.1828613 0.1201172 0.3168945
v 0.1828613 0.1599121 0.3168945
vn NaN 0 0
vn NaN 0 0
vn NaN 0 0
vn NaN 0 0
vn NaN 0 0
vn NaN 0 0
vt -0.0234375 -0.984375
vt -0.0234375 -0.7851563
vt -0.5 -0.984375
vt -0.5 -0.7851563
vt -0.984375 -0.984375
vt -0.984375 -0.7851563
v -0.1828613 0.1201172 0.3168945
v -0.1828613 0.1599121 0.3168945
v -0.3659668 0.1201172 0
v -0.3659668 0.1599121 0
v -0.1828613 0.1201172 -0.3168945
v -0.1828613 0.1599121 -0.3168945
vn NaN 0 0
vn NaN 0 0
vn NaN 0 0
vn NaN 0 0
vn NaN 0 0
vn NaN 0 0
vt 0.984375 -0.984375
vt 0.984375 -0.7851563
vt 0.5078125 -0.984375
vt 0.5078125 -0.7851563
vt 0.03125 -0.984375
vt 0.03125 -0.7851563
v 0.1828613 0.4528809 -0.3168945
v 0.1828613 0.5046387 -0.3168945
v 0.3659668 0.4528809 0
v 0.3659668 0.5046387 0
v 0.1828613 0.4528809 0.3168945
v 0.1828613 0.5046387 0.3168945
vn NaN 0 0
vn NaN 0 0
vn NaN 0 0
vn NaN 0 0
vn NaN 0 0
vn NaN 0 0
vt -0.0234375 -0.7851563
vt -0.0234375 -0.5273438
vt -0.5 -0.7851563
vt -0.5 -0.5273438
vt -0.984375 -0.7851563
vt -0.984375 -0.5273438
v -0.1828613 0.4528809 0.3168945
v -0.1828613 0.5046387 0.3168945
v -0.3659668 0.4528809 0
v -0.3659668 0.5046387 0
v -0.1828613 0.4528809 -0.3168945
v -0.1828613 0.5046387 -0.3168945
vn NaN 0 0
vn NaN 0 0
vn NaN 0 0
vn NaN 0 0
vn NaN 0 0
vn NaN 0 0
vt 0.984375 -0.7851563
vt 0.984375 -0.5273438
vt 0.5078125 -0.7851563
vt 0.5078125 -0.5273438
vt 0.03125 -0.7851563
vt 0.03125 -0.5273438
v 0.1828613 0.4130859 -0.3168945
v 0.1828613 0.4528809 -0.3168945
v 0.3659668 0.4130859 0
v 0.3659668 0.4528809 0
v 0.1828613 0.4130859 0.3168945
v 0.1828613 0.4528809 0.3168945
vn NaN 0 0
vn NaN 0 0
vn NaN 0 0
vn NaN 0 0
vn NaN 0 0
vn NaN 0 0
vt -0.0234375 -0.984375
vt -0.0234375 -0.7851563
vt -0.5 -0.984375
vt -0.5 -0.7851563
vt -0.984375 -0.984375
vt -0.984375 -0.7851563
v -0.1828613 0.4130859 0.3168945
v -0.1828613 0.4528809 0.3168945
v -0.3659668 0.4130859 0
v -0.3659668 0.4528809 0
v -0.1828613 0.4130859 -0.3168945
v -0.1828613 0.4528809 -0.3168945
vn NaN 0 0
vn NaN 0 0
vn NaN 0 0
vn NaN 0 0
vn NaN 0 0
vn NaN 0 0
vt 0.984375 -0.984375
vt 0.984375 -0.7851563
vt 0.5078125 -0.984375
vt 0.5078125 -0.7851563
vt 0.03125 -0.984375
vt 0.03125 -0.7851563
v 0.1828613 0.04467773 -0.3168945
v 0.1828613 0.08447266 -0.3168945
v 0.3659668 0.04467773 0
v 0.3659668 0.08447266 0
v 0.1828613 0.04467773 0.3168945
v 0.1828613 0.08447266 0.3168945
vn NaN 0 0
vn NaN 0 0
vn NaN 0 0
vn NaN 0 0
vn NaN 0 0
vn NaN 0 0
vt -0.0234375 -0.6210938
vt -0.0234375 -0.3632813
vt -0.5 -0.6210938
vt -0.5 -0.3632813
vt -0.984375 -0.6210938
vt -0.984375 -0.3632813
v -0.1828613 0.04467773 0.3168945
v -0.1828613 0.08447266 0.3168945
v -0.3659668 0.04467773 0
v -0.3659668 0.08447266 0
v -0.1828613 0.04467773 -0.3168945
v -0.1828613 0.08447266 -0.3168945
vn NaN 0 0
vn NaN 0 0
vn NaN 0 0
vn NaN 0 0
vn NaN 0 0
vn NaN 0 0
vt 0.984375 -0.6210938
vt 0.984375 -0.3632813
vt 0.5078125 -0.6210938
vt 0.5078125 -0.3632813
vt 0.03125 -0.6210938
vt 0.03125 -0.3632813
