mtllib this.mtl

o obj1
v 1.44016969 0.625 0
v 1.44016969 0.01550434 0.12403473
v 1.44016969 0 0
v 1.44016969 0.64050436 0.12403473
vn 1 0 0
vn 1 0 0
vn 1 0 0
vn 1 0 0
vt 0.26254 0
vt 0.00651 0.48327
vt 0 0
vt 0.26905 0.48327
usemtl mat0
f 1/1/1 2/2/2 3/3/3
f 2/2/2 1/1/1 4/4/4
# Vertices: 4, normals: 4, texture coordinates: 4, faces: 2

o obj2
v 1.06516969 0.01550434 0.12403473
v 1.06516969 0.625 0
v 1.06516969 0 0
v 1.06516969 0.64050436 0.12403473
vn -1 0 0
vn -1 0 0
vn -1 0 0
vn -1 0 0
vt -0.00651 0.48327
vt -0.26254 0
vt 0 0
vt -0.26905 0.48327
usemtl mat0
f 5/5/5 6/6/6 7/7/7
f 6/6/6 5/5/5 8/8/8
# Vertices: 4, normals: 4, texture coordinates: 4, faces: 2

o obj3
v 1.06516969 0.01550434 0.12403473
v 1.11315894 0.06349359 0.12403473
v 1.06516969 0.64050436 0.12403473
v 1.44016969 0.01550434 0.12403473
v 1.39218044 0.06349359 0.12403473
v 1.39218044 0.59251511 0.12403473
v 1.11315894 0.59251511 0.12403473
v 1.44016969 0.64050436 0.12403473
vn -0 -0 1
vn -0 -0 1
vn -0 -0 1
vn -0 -0 1
vn -0 -0 1
vn -0 -0 1
vn -0 -0 1
vn -0 -0 1
vt 0 0.06041
vt 0.02016 0.24739
vt 0 2.49559
vt 0.15752 0.06041
vt 0.13736 0.24739
vt 0.13736 2.30861
vt 0.02016 2.30861
vt 0.15752 2.49559
usemtl mat0
f 9/9/9 10/10/10 11/11/11
f 10/10/10 9/9/9 12/12/12
f 10/10/10 12/12/12 13/13/13
f 13/13/13 12/12/12 14/14/14
f 11/11/11 15/15/15 16/16/16
f 15/15/15 11/11/11 10/10/10
f 16/16/16 15/15/15 14/14/14
f 16/16/16 14/14/14 12/12/12
# Vertices: 8, normals: 8, texture coordinates: 8, faces: 8

o obj4
v 1.44016969 0.01550434 0.12403473
v 1.06516969 0 0
v 1.44016969 0 0
v 1.06516969 0.01550434 0.12403473
vn -0 -0.99228 0.12403
vn -0 -0.99228 0.12403
vn -0 -0.99228 0.12403
vn -0 -0.99228 0.12403
vt 0.15752 0.48704
vt 0 0
vt 0.15752 0
vt -0 0.48704
usemtl mat0
f 17/17/17 18/18/18 19/19/19
f 18/18/18 17/17/17 20/20/20
# Vertices: 4, normals: 4, texture coordinates: 4, faces: 2

o obj5
v 1.44016969 0.625 0
v 1.06516969 0 0
v 1.06516969 0.625 0
v 1.44016969 0 0
vn 0 0 -1
vn 0 0 -1
vn 0 0 -1
vn 0 0 -1
vt -0.15752 2.43518
vt 0 0
vt 0 2.43518
vt -0.15752 0
usemtl mat0
f 21/21/21 22/22/22 23/23/23
f 22/22/22 21/21/21 24/24/24
# Vertices: 4, normals: 4, texture coordinates: 4, faces: 2

o obj6
v 1.06516969 0.64050436 0.12403473
v 1.44016969 0.625 0
v 1.06516969 0.625 0
v 1.44016969 0.64050436 0.12403473
vn 0 0.99228 -0.12403
vn 0 0.99228 -0.12403
vn 0 0.99228 -0.12403
vn 0 0.99228 -0.12403
vt 0 0.78908
vt -0.15752 0.30205
vt 0 0.30205
vt -0.15752 0.78908
usemtl mat0
f 25/25/25 26/26/26 27/27/27
f 26/26/26 25/25/25 28/28/28
# Vertices: 4, normals: 4, texture coordinates: 4, faces: 2

o obj7
v 1.39218044 0.15651964 0.86824316
v 1.11315894 0.68554115 0.86824316
v 1.11315894 0.15651964 0.86824316
v 1.39218044 0.68554115 0.86824316
vn -0 -0 1
vn -0 -0 1
vn -0 -0 1
vn -0 -0 1
vt 1 -0
vt -0 1
vt -0 -0
vt 1 1
usemtl mat1
f 29/29/29 30/30/30 31/31/31
f 30/30/30 29/29/29 32/32/32
# Vertices: 4, normals: 4, texture coordinates: 4, faces: 2

o obj8
v 1.39218044 0.06349359 0.12403473
v 1.11315894 0.59251511 0.12403473
v 1.11315894 0.06349359 0.12403473
v 1.39218044 0.59251511 0.12403473
vn -0 -0 1
vn -0 -0 1
vn -0 -0 1
vn -0 -0 1
vt 0.32701 0.06349
vt 0.04799 0.59252
vt 0.04799 0.06349
vt 0.32701 0.59252
usemtl mat1
f 33/33/33 34/34/34 35/35/35
f 34/34/34 33/33/33 36/36/36
# Vertices: 4, normals: 4, texture coordinates: 4, faces: 2

o obj9
v 1.11315894 0.15651964 0.86824316
v 1.11315894 0.59251511 0.12403473
v 1.11315894 0.06349359 0.12403473
v 1.11315894 0.68554115 0.86824316
vn -1 0 0
vn -1 0 0
vn -1 0 0
vn -1 0 0
vt 0.85045 1
vt 0.14955 0
vt 1 0
vt 0 1
usemtl mat2
f 37/37/37 38/38/38 39/39/39
f 38/38/38 37/37/37 40/40/40
# Vertices: 4, normals: 4, texture coordinates: 4, faces: 2

o obj10
v 1.39218044 0.06349359 0.12403473
v 1.11315894 0.15651964 0.86824316
v 1.11315894 0.06349359 0.12403473
v 1.39218044 0.15651964 0.86824316
vn -0 -0.99228 0.12403
vn -0 -0.99228 0.12403
vn -0 -0.99228 0.12403
vn -0 -0.99228 0.12403
vt 1 0
vt -0 1
vt -0 -0
vt 1 1
usemtl mat1
f 41/41/41 42/42/42 43/43/43
f 42/42/42 41/41/41 44/44/44
# Vertices: 4, normals: 4, texture coordinates: 4, faces: 2

o obj11
v 1.11315894 0.68554115 0.86824316
v 1.39218044 0.59251511 0.12403473
v 1.11315894 0.59251511 0.12403473
v 1.39218044 0.68554115 0.86824316
vn 0 0.99228 -0.12403
vn 0 0.99228 -0.12403
vn 0 0.99228 -0.12403
vn 0 0.99228 -0.12403
vt 0 1
vt -1 -0
vt 0 0
vt -1 1
usemtl mat1
f 45/45/45 46/46/46 47/47/47
f 46/46/46 45/45/45 48/48/48
# Vertices: 4, normals: 4, texture coordinates: 4, faces: 2

o obj12
v 1.39218044 0.59251511 0.12403473
v 1.39218044 0.15651964 0.86824316
v 1.39218044 0.06349359 0.12403473
v 1.39218044 0.68554115 0.86824316
vn 1 0 0
vn 1 0 0
vn 1 0 0
vn 1 0 0
vt 1 -0
vt 0 1
vt 0 0
vt 1 1
usemtl mat1
f 49/49/49 50/50/50 51/51/51
f 50/50/50 49/49/49 52/52/52
# Vertices: 4, normals: 4, texture coordinates: 4, faces: 2

o obj13
v 0.0625 1.10949564 0.87596524
v 0.15625 0.92199564 0.87596524
v 0.0625 0.73449564 0.87596524
v 0.3125 1.10949564 0.87596524
v 0.21875 0.92199564 0.87596524
v 0.21875 0.73449564 0.87596524
v 0.3125 0.73449564 0.87596524
v 0.15625 0.73449564 0.87596524
vn 0 0 -1
vn 0 0 -1
vn 0 0 -1
vn 0 0 -1
vn 0 0 -1
vn 0 0 -1
vn 0 0 -1
vn 0 0 -1
vt -0.0625 1.125
vt -0.15625 0.9375
vt -0.0625 0.75
vt -0.3125 1.125
vt -0.21875 0.9375
vt -0.21875 0.75
vt -0.3125 0.75
vt -0.15625 0.75
usemtl mat1
f 53/53/53 54/54/54 55/55/55
f 54/54/54 53/53/53 56/56/56
f 54/54/54 56/56/56 57/57/57
f 57/57/57 56/56/56 58/58/58
f 58/58/58 56/56/56 59/59/59
f 60/60/60 55/55/55 54/54/54
# Vertices: 8, normals: 8, texture coordinates: 8, faces: 6

o obj14
v 0.0625 1.17199564 0.87596524
v 0.3125 1.17199564 0.50096524
v 0.0625 1.17199564 0.50096524
v 0.3125 1.17199564 0.87596524
vn 0 1 0
vn 0 1 0
vn 0 1 0
vn 0 1 0
vt -0.00045 0.00321
vt -0.00227 0.00184
vt -0.00045 0.00184
vt -0.00227 0.00321
usemtl mat1
f 61/61/61 62/62/62 63/63/63
f 62/62/62 61/61/61 64/64/64
# Vertices: 4, normals: 4, texture coordinates: 4, faces: 2

o obj15
v 0.3125 0.69543314 0.56346524
v 0.0625 1.10949564 0.56346524
v 0.0625 0.69543314 0.56346524
v 0.3125 1.10949564 0.56346524
vn 0 0 1
vn 0 0 1
vn 0 0 1
vn 0 0 1
vt 0.3125 0.71094
vt 0.0625 1.125
vt 0.0625 0.71094
vt 0.3125 1.125
usemtl mat1
f 65/65/65 66/66/66 67/67/67
f 66/66/66 65/65/65 68/68/68
# Vertices: 4, normals: 4, texture coordinates: 4, faces: 2

o obj16
v 0 2.35949564 1.25096524
v 0 -0.01550434 1.00096524
v 0 -0.01550434 1.25096524
v 0 0.75012064 1.00096524
v 0 2.35949564 1.00096524
vn -1 0 0
vn -1 0 0
vn -1 0 0
vn -1 0 0
vn -1 0 0
vt 0.00118 0.98949
vt 0.99882 0.01542
vt 0.99882 0.98949
vt 0.67721 0.01542
vt 0.00118 0.01542
usemtl mat0
f 69/69/69 70/70/70 71/71/71
f 70/70/70 69/69/69 72/72/72
f 72/72/72 69/69/69 73/73/73
# Vertices: 5, normals: 5, texture coordinates: 5, faces: 3

o obj17
v 0.3125 1.10949564 0.87596524
v 0.0625 1.10949564 0.56346524
v 0.3125 1.10949564 0.56346524
v 0.0625 1.10949564 0.87596524
vn 0 -1 0
vn 0 -1 0
vn 0 -1 0
vn 0 -1 0
vt 0.3125 0.87597
vt 0.0625 0.56347
vt 0.3125 0.56347
vt 0.0625 0.87597
usemtl mat1
f 74/74/74 75/75/75 76/76/76
f 75/75/75 74/74/74 77/77/77
# Vertices: 4, normals: 4, texture coordinates: 4, faces: 2

o obj18
v 0.3125 1.17199564 0.50096524
v 0.3125 0.69543314 0.56346524
v 0.3125 0.68762064 0.50096524
v 0.3125 1.10949564 0.56346524
v 0.3125 1.10949564 0.87596524
v 0.3125 1.17199564 0.87596524
vn 1 0 0
vn 1 0 0
vn 1 0 0
vn 1 0 0
vn 1 0 0
vn 1 0 0
vt 1.1875 0.50097
vt 0.71094 0.56347
vt 0.70312 0.50097
vt 1.125 0.56347
vt 1.125 0.87597
vt 1.1875 0.87597
usemtl mat1
f 78/78/78 79/79/79 80/80/80
f 79/79/79 78/78/78 81/81/81
f 81/81/81 78/78/78 82/82/82
f 82/82/82 78/78/78 83/83/83
# Vertices: 6, normals: 6, texture coordinates: 6, faces: 4

o obj19
v 0.375 2.35949564 1.25096524
v 0.3125 0.10949565 1.37596524
v 0.375 -0.01550434 1.25096524
v 0.3125 2.35949564 1.37596524
vn 0.89443 0 0.44721
vn 0.89443 0 0.44721
vn 0.89443 0 0.44721
vn 0.89443 0 0.44721
vt 0.99765 3.46031
vt 0.05251 3.81527
vt 0 3.46031
vt 0.99765 3.81527
usemtl mat0
f 84/84/84 85/85/85 86/86/86
f 85/85/85 84/84/84 87/87/87
# Vertices: 4, normals: 4, texture coordinates: 4, faces: 2

o obj20
v 0.3125 1.17199564 0.87596524
v 0.0625 1.10949564 0.87596524
v 0.0625 1.17199564 0.87596524
v 0.3125 1.10949564 0.87596524
vn 0 0 -1
vn 0 0 -1
vn 0 0 -1
vn 0 0 -1
vt -0.3125 1.1875
vt -0.0625 1.125
vt -0.0625 1.1875
vt -0.3125 1.125
usemtl mat1
f 88/88/88 89/89/89 90/90/90
f 89/89/89 88/88/88 91/91/91
# Vertices: 4, normals: 4, texture coordinates: 4, faces: 2

o obj21
v 0.0625 1.17199564 0.87596524
v 0.0625 1.10949564 0.56346524
v 0.0625 1.10949564 0.87596524
v 0.0625 0.69543314 0.56346524
v 0.0625 1.17199564 0.50096524
v 0.0625 0.68762064 0.50096524
vn -1 0 0
vn -1 0 0
vn -1 0 0
vn -1 0 0
vn -1 0 0
vn -1 0 0
vt -0.00864 0.00321
vt -0.00818 0.00207
vt -0.00818 0.00321
vt -0.00517 0.00207
vt -0.00864 0.00184
vt -0.00511 0.00184
usemtl mat1
f 92/92/92 93/93/93 94/94/94
f 95/95/95 96/96/96 97/97/97
f 96/96/96 95/95/95 93/93/93
f 96/96/96 93/93/93 92/92/92
# Vertices: 6, normals: 6, texture coordinates: 6, faces: 4

o obj22
v 0.375 0.625 0
v 0.375 0.10949565 0.87596524
v 0.375 0 0
v 0.375 0.75012064 1.00096524
v 0.375 -0.01550434 1.00096524
vn 1 0 0
vn 1 0 0
vn 1 0 0
vn 1 0 0
vn 1 0 0
vt 1 0
vt -0 1
vt 0.02421 0
vt 0.97234 1.1427
vt -0.22301 1.1427
usemtl mat1
f 98/98/98 99/99/99 100/100/100
f 99/99/99 101/101/101 102/102/102
f 101/101/101 99/99/99 98/98/98
# Vertices: 5, normals: 5, texture coordinates: 5, faces: 3

o obj23
v 0.3125 2.35949564 0.87596524
v 0.0625 1.17199564 0.87596524
v 0.0625 2.35949564 0.87596524
v 0.3125 1.17199564 0.87596524
vn 0 0 -1
vn 0 0 -1
vn 0 0 -1
vn 0 0 -1
vt -1 6.67489
vt -0.87912 6
vt -0.87912 6.67489
vt -1 6
usemtl mat0
f 103/103/103 104/104/104 105/105/105
f 104/104/104 103/103/103 106/106/106
# Vertices: 4, normals: 4, texture coordinates: 4, faces: 2

o obj24
v 0.3125 1.10949564 0.87596524
v 0.375 0.75012064 1.00096524
v 0.3125 0.73449564 0.87596524
v 0.3125 1.17199564 0.87596524
vn 0.89443 0 -0.44721
vn 0.89443 0 -0.44721
vn 0.89443 0 -0.44721
vn 0.89443 0 -0.44721
vt 0.00818 0.00339
vt 0.00557 0.0039
vt 0.00545 0.00339
vt 0.00864 0.00339
usemtl mat1
f 107/107/107 108/108/108 109/109/109
f 108/108/108 107/107/107 110/110/110
# Vertices: 4, normals: 4, texture coordinates: 4, faces: 2

o obj25
v 0.3125 0.10949565 1.37596524
v 0.0625 2.35949564 1.37596524
v 0.0625 0.10949565 1.37596524
v 0.3125 2.35949564 1.37596524
vn 0 0 1
vn 0 0 1
vn 0 0 1
vn 0 0 1
vt -0 2.96939
vt 1 4
vt 0 4
vt 1 2.96939
usemtl mat0
f 111/111/111 112/112/112 113/113/113
f 112/112/112 111/111/111 114/114/114
# Vertices: 4, normals: 4, texture coordinates: 4, faces: 2

o obj26
v 0.3125 0.69543314 0.56346524
v 0.0625 0.68762064 0.50096524
v 0.3125 0.68762064 0.50096524
v 0.0625 0.69543314 0.56346524
vn 0 -0.99228 0.12403
vn 0 -0.99228 0.12403
vn 0 -0.99228 0.12403
vn 0 -0.99228 0.12403
vt 0.3125 0.6473
vt 0.0625 0.58431
vt 0.3125 0.58431
vt 0.0625 0.6473
usemtl mat1
f 115/115/115 116/116/116 117/117/117
f 116/116/116 115/115/115 118/118/118
# Vertices: 4, normals: 4, texture coordinates: 4, faces: 2

o obj27
v 0.21875 0.70324564 0.62596524
v 0.21875 0.86899567 0.68846524
v 0.21875 0.73449564 0.87596524
v 0.21875 0.92199564 0.62596524
v 0.21875 0.85949564 0.75096524
v 0.21875 0.86899567 0.81346524
v 0.21875 0.92199564 0.87596524
vn 1 0 0
vn 1 0 0
vn 1 0 0
vn 1 0 0
vn 1 0 0
vn 1 0 0
vn 1 0 0
vt 0.71875 0.62597
vt 0.8845 0.68847
vt 0.75 0.87597
vt 0.9375 0.62597
vt 0.875 0.75097
vt 0.8845 0.81347
vt 0.9375 0.87597
usemtl mat1
f 119/119/119 120/120/120 121/121/121
f 120/120/120 119/119/119 122/122/122
f 121/121/121 120/120/120 123/123/123
f 121/121/121 124/124/124 125/125/125
f 124/124/124 121/121/121 123/123/123
# Vertices: 7, normals: 7, texture coordinates: 7, faces: 5

o obj28
v 0.21875 0.92199564 0.62596524
v 0.15625 0.70324564 0.62596524
v 0.15625 0.92199564 0.62596524
v 0.21875 0.70324564 0.62596524
vn 0 0 -1
vn 0 0 -1
vn 0 0 -1
vn 0 0 -1
vt -0.21875 0.9375
vt -0.15625 0.71875
vt -0.15625 0.9375
vt -0.21875 0.71875
usemtl mat1
f 126/126/126 127/127/127 128/128/128
f 127/127/127 126/126/126 129/129/129
# Vertices: 4, normals: 4, texture coordinates: 4, faces: 2

o obj29
v 0.15625 0.73449564 0.87596524
v 0.15625 0.86899567 0.81346524
v 0.15625 0.85949564 0.75096524
v 0.15625 0.92199564 0.87596524
v 0.15625 0.70324564 0.62596524
v 0.15625 0.86899567 0.68846524
v 0.15625 0.92199564 0.62596524
vn -1 0 0
vn -1 0 0
vn -1 0 0
vn -1 0 0
vn -1 0 0
vn -1 0 0
vn -1 0 0
vt -0.00545 0.00321
vt -0.00643 0.00298
vt -0.00636 0.00275
vt -0.00682 0.00321
vt -0.00523 0.0023
vt -0.00643 0.00253
vt -0.00682 0.0023
usemtl mat1
f 130/130/130 131/131/131 132/132/132
f 131/131/131 130/130/130 133/133/133
f 134/134/134 135/135/135 136/136/136
f 135/135/135 134/134/134 130/130/130
f 135/135/135 130/130/130 132/132/132
# Vertices: 7, normals: 7, texture coordinates: 7, faces: 5

o obj30
v 0.15625 0.92199564 0.87596524
v 0.21875 0.86899567 0.81346524
v 0.15625 0.86899567 0.81346524
v 0.21875 0.92199564 0.87596524
vn 0 0.76269 -0.64676
vn 0 0.76269 -0.64676
vn 0 0.76269 -0.64676
vn 0 0.76269 -0.64676
vt -0.15625 1.27443
vt -0.21875 1.19248
vt -0.15625 1.19248
vt -0.21875 1.27443
usemtl mat1
f 137/137/137 138/138/138 139/139/139
f 138/138/138 137/137/137 140/140/140
# Vertices: 4, normals: 4, texture coordinates: 4, faces: 2

o obj31
v 0.3125 1.17199564 0.50096524
v 0.0625 0.68762064 0.50096524
v 0.0625 1.17199564 0.50096524
v 0.3125 0.68762064 0.50096524
vn 0 0 -1
vn 0 0 -1
vn 0 0 -1
vn 0 0 -1
vt -0.3125 1.1875
vt -0.0625 0.70312
vt -0.0625 1.1875
vt -0.3125 0.70312
usemtl mat1
f 141/141/141 142/142/142 143/143/143
f 142/142/142 141/141/141 144/144/144
# Vertices: 4, normals: 4, texture coordinates: 4, faces: 2

o obj32
v 0.375 0 0
v 0 0.10949565 0.87596524
v 0 0 0
v 0.375 0.10949565 0.87596524
vn -0 -0.99228 0.12403
vn -0 -0.99228 0.12403
vn -0 -0.99228 0.12403
vn -0 -0.99228 0.12403
vt 1 0
vt 0 1
vt 0 0
vt 1 1
usemtl mat3
f 145/145/145 146/146/146 147/147/147
f 146/146/146 145/145/145 148/148/148
# Vertices: 4, normals: 4, texture coordinates: 4, faces: 2

o obj33
v 0.15625 0.73449564 0.87596524
v 0.21875 0.70324564 0.62596524
v 0.15625 0.70324564 0.62596524
v 0.21875 0.73449564 0.87596524
vn 0 0.99228 -0.12403
vn 0 0.99228 -0.12403
vn 0 0.99228 -0.12403
vn 0 0.99228 -0.12403
vt -0.15625 0.96223
vt -0.21875 0.71028
vt -0.15625 0.71028
vt -0.21875 0.96223
usemtl mat1
f 149/149/149 150/150/150 151/151/151
f 150/150/150 149/149/149 152/152/152
# Vertices: 4, normals: 4, texture coordinates: 4, faces: 2

o obj34
v 0.15625 0.85949564 0.75096524
v 0.21875 0.86899567 0.68846524
v 0.15625 0.86899567 0.68846524
v 0.21875 0.85949564 0.75096524
vn 0 0.98864 0.15027
vn 0 0.98864 0.15027
vn 0 0.98864 0.15027
vn 0 0.98864 0.15027
vt -0.15625 0.61095
vt -0.21875 0.54773
vt -0.15625 0.54773
vt -0.21875 0.61095
usemtl mat1
f 153/153/153 154/154/154 155/155/155
f 154/154/154 153/153/153 156/156/156
# Vertices: 4, normals: 4, texture coordinates: 4, faces: 2

o obj35
v 0.15625 0.86899567 0.81346524
v 0.21875 0.85949564 0.75096524
v 0.15625 0.85949564 0.75096524
v 0.21875 0.86899567 0.81346524
vn 0 0.98864 -0.15027
vn 0 0.98864 -0.15027
vn 0 0.98864 -0.15027
vn 0 0.98864 -0.15027
vt -0.15625 0.93715
vt -0.21875 0.87393
vt -0.15625 0.87393
vt -0.21875 0.93715
usemtl mat1
f 157/157/157 158/158/158 159/159/159
f 158/158/158 157/157/157 160/160/160
# Vertices: 4, normals: 4, texture coordinates: 4, faces: 2

o obj36
v 0.15625 0.86899567 0.68846524
v 0.21875 0.92199564 0.62596524
v 0.15625 0.92199564 0.62596524
v 0.21875 0.86899567 0.68846524
vn 0 0.76269 0.64676
vn 0 0.76269 0.64676
vn 0 0.76269 0.64676
vn 0 0.76269 0.64676
vt -0.15625 -0.04697
vt -0.21875 -0.12892
vt -0.15625 -0.12892
vt -0.21875 -0.04697
usemtl mat1
f 161/161/161 162/162/162 163/163/163
f 162/162/162 161/161/161 164/164/164
# Vertices: 4, normals: 4, texture coordinates: 4, faces: 2

o obj37
v 0 2.35949564 1.00096524
v 0.3125 2.35949564 0.87596524
v 0.0625 2.35949564 0.87596524
v 0.375 2.35949564 1.00096524
v 0 2.35949564 1.25096524
v 0.375 2.35949564 1.25096524
v 0.0625 2.35949564 1.37596524
v 0.3125 2.35949564 1.37596524
vn 0 1 0
vn 0 1 0
vn 0 1 0
vn 0 1 0
vn 0 1 0
vn 0 1 0
vn 0 1 0
vn 0 1 0
vt -0 0
vt -0.83333 -0.27402
vt -0.16667 -0.27402
vt -1 0
vt 0 0.54803
vt -1 0.54803
vt -0.16667 0.82205
vt -0.83333 0.82205
usemtl mat1
f 165/165/165 166/166/166 167/167/167
f 166/166/166 165/165/165 168/168/168
f 168/168/168 165/165/165 169/169/169
f 168/168/168 169/169/169 170/170/170
f 170/170/170 169/169/169 171/171/171
f 170/170/170 171/171/171 172/172/172
# Vertices: 8, normals: 8, texture coordinates: 8, faces: 6

o obj38
v 0 0.75012064 1.00096524
v 0.0625 1.10949564 0.87596524
v 0.0625 0.73449564 0.87596524
v 0.0625 1.17199564 0.87596524
vn -0.89443 0 -0.44721
vn -0.89443 0 -0.44721
vn -0.89443 0 -0.44721
vn -0.89443 0 -0.44721
vt -0.00557 0.00328
vt -0.00818 0.00277
vt -0.00545 0.00277
vt -0.00864 0.00277
usemtl mat1
f 173/173/173 174/174/174 175/175/175
f 174/174/174 173/173/173 176/176/176
# Vertices: 4, normals: 4, texture coordinates: 4, faces: 2

o obj39
v 0 0.75012064 1.00096524
v 0 0.10949565 0.87596524
v 0 -0.01550434 1.00096524
v 0 0.625 0
v 0 0 0
vn -1 0 0
vn -1 0 0
vn -1 0 0
vn -1 0 0
vn -1 0 0
vt -1 1
vt 0 0.87512
vt 0.225 1
vt -1 0
vt -0 -0
usemtl mat1
f 177/177/177 178/178/178 179/179/179
f 178/178/178 177/177/177 180/180/180
f 180/180/180 181/181/181 178/178/178
# Vertices: 5, normals: 5, texture coordinates: 5, faces: 3

o obj40
v 0.15625 0.73449564 0.87596524
v 0.15625 0.70324564 0.62596524
v 0.0625 0.73449564 0.87596524
v 0 0.625 0
v 0.0625 0.68762064 0.50096524
v 0.375 0.625 0
v 0 0.75012064 1.00096524
v 0.0625 0.69543314 0.56346524
v 0.3125 0.69543314 0.56346524
v 0.3125 0.68762064 0.50096524
v 0.375 0.75012064 1.00096524
v 0.21875 0.70324564 0.62596524
v 0.3125 0.73449564 0.87596524
v 0.21875 0.73449564 0.87596524
vn 0 0.99228 -0.12403
vn 0 0.99228 -0.12403
vn 0 0.99228 -0.12403
vn 0 0.99228 -0.12403
vn 0 0.99228 -0.12403
vn 0 0.99228 -0.12403
vn 0 0.99228 -0.12403
vn 0 0.99228 -0.12403
vn 0 0.99228 -0.12403
vn 0 0.99228 -0.12403
vn 0 0.99228 -0.12403
vn 0 0.99228 -0.12403
vn 0 0.99228 -0.12403
vn 0 0.99228 -0.12403
vt -0.41667 0.87512
vt -0.41667 0.62536
vt -0.16667 0.87512
vt 0 -0
vt -0.16667 0.50048
vt -1 -0
vt -0 1
vt -0.16667 0.56292
vt -0.83333 0.56292
vt -0.83333 0.50048
vt -1 1
vt -0.58333 0.62536
vt -0.83333 0.87512
vt -0.58333 0.87512
usemtl mat1
f 182/182/182 183/183/183 184/184/184
f 185/185/185 186/186/186 187/187/187
f 186/186/186 185/185/185 188/188/188
f 186/186/186 188/188/188 189/189/189
f 189/189/189 188/188/188 183/183/183
f 189/189/189 183/183/183 190/190/190
f 183/183/183 188/188/188 184/184/184
f 187/187/187 191/191/191 192/192/192
f 191/191/191 187/187/187 186/186/186
f 192/192/192 191/191/191 190/190/190
f 192/192/192 190/190/190 193/193/193
f 193/193/193 190/190/190 183/183/183
f 192/192/192 193/193/193 194/194/194
f 194/194/194 193/193/193 195/195/195
# Vertices: 14, normals: 14, texture coordinates: 14, faces: 14

o obj41
v 0.3125 0.10949565 1.37596524
v 0 -0.01550434 1.25096524
v 0.375 -0.01550434 1.25096524
v 0.0625 0.10949565 1.37596524
vn 0 -0.70711 0.70711
vn 0 -0.70711 0.70711
vn 0 -0.70711 0.70711
vn 0 -0.70711 0.70711
vt 0.21357 2.11468
vt 0.084 2.9304
vt 0.084 2.08038
vt 0.21357 2.68136
usemtl mat0
f 196/196/196 197/197/197 198/198/198
f 197/197/197 196/196/196 199/199/199
# Vertices: 4, normals: 4, texture coordinates: 4, faces: 2

o obj42
v 0.375 0.10949565 0.87596524
v 0 -0.01550434 1.00096524
v 0 0.10949565 0.87596524
v 0.375 -0.01550434 1.00096524
vn 0 -0.70711 -0.70711
vn 0 -0.70711 -0.70711
vn 0 -0.70711 -0.70711
vn 0 -0.70711 -0.70711
vt 1 0
vt 0 1
vt 0 0
vt 1 1
usemtl mat1
f 200/200/200 201/201/201 202/202/202
f 201/201/201 200/200/200 203/203/203
# Vertices: 4, normals: 4, texture coordinates: 4, faces: 2

o obj43
v 0.0625 0.10949565 1.37596524
v 0 2.35949564 1.25096524
v 0 -0.01550434 1.25096524
v 0.0625 2.35949564 1.37596524
vn -0.89443 0 0.44721
vn -0.89443 0 0.44721
vn -0.89443 0 0.44721
vn -0.89443 0 0.44721
vt -0.05251 4.90407
vt -0.99765 4.35954
vt 0 4.35954
vt -0.99765 4.90407
usemtl mat0
f 204/204/204 205/205/205 206/206/206
f 205/205/205 204/204/204 207/207/207
# Vertices: 4, normals: 4, texture coordinates: 4, faces: 2

o obj44
v 0.375 -0.01550434 1.25096524
v 0 -0.01550434 1.00096524
v 0.375 -0.01550434 1.00096524
v 0 -0.01550434 1.25096524
vn 0 -1 0
vn 0 -1 0
vn 0 -1 0
vn 0 -1 0
vt 0.24526 3.08011
vt 0.03545 3.8255
vt 0.03545 3.08011
vt 0.24526 3.8255
usemtl mat0
f 208/208/208 209/209/209 210/210/210
f 209/209/209 208/208/208 211/211/211
# Vertices: 4, normals: 4, texture coordinates: 4, faces: 2

o obj45
v 0.375 0.75012064 1.00096524
v 0.375 -0.01550434 1.25096524
v 0.375 -0.01550434 1.00096524
v 0.375 2.35949564 1.25096524
v 0.375 2.35949564 1.00096524
vn 1 0 0
vn 1 0 0
vn 1 0 0
vn 1 0 0
vn 1 0 0
vt 0.32161 3.90005
vt 0 4.87412
vt 0 3.90005
vt 0.99765 4.87412
vt 0.99765 3.90005
usemtl mat0
f 212/212/212 213/213/213 214/214/214
f 213/213/213 212/212/212 215/215/215
f 215/215/215 212/212/212 216/216/216
# Vertices: 5, normals: 5, texture coordinates: 5, faces: 3

o obj46
v 0 2.35949564 1.00096524
v 0.0625 1.17199564 0.87596524
v 0 0.75012064 1.00096524
v 0.0625 2.35949564 0.87596524
vn -0.89443 0 -0.44721
vn -0.89443 0 -0.44721
vn -0.89443 0 -0.44721
vn -0.89443 0 -0.44721
vt -0.99765 3.48831
vt -0.49882 2.94379
vt -0.32161 3.48831
vt -0.99765 2.94379
usemtl mat0
f 217/217/217 218/218/218 219/219/219
f 218/218/218 217/217/217 220/220/220
# Vertices: 4, normals: 4, texture coordinates: 4, faces: 2

o obj47
v 0.3125 1.17199564 0.87596524
v 0.375 2.35949564 1.00096524
v 0.375 0.75012064 1.00096524
v 0.3125 2.35949564 0.87596524
vn 0.89443 0 -0.44721
vn 0.89443 0 -0.44721
vn 0.89443 0 -0.44721
vn 0.89443 0 -0.44721
vt 0.49882 3.59721
vt 0.99765 4.14174
vt 0.32161 4.14174
vt 0.99765 3.59721
usemtl mat0
f 221/221/221 222/222/222 223/223/223
f 222/222/222 221/221/221 224/224/224
# Vertices: 4, normals: 4, texture coordinates: 4, faces: 2

o obj48
v 0.375 0.625 0
v 0 0 0
v 0 0.625 0
v 0.375 0 0
vn 0 0 -1
vn 0 0 -1
vn 0 0 -1
vn 0 0 -1
vt -0.375 0.6405
vt 0 0.0155
vt -0 0.6405
vt -0.375 0.0155
usemtl mat1
f 225/225/225 226/226/226 227/227/227
f 226/226/226 225/225/225 228/228/228
# Vertices: 4, normals: 4, texture coordinates: 4, faces: 2

